<?xml version="1.0" encoding="utf-8"?><svg xmlns="http://www.w3.org/2000/svg" xmlns:xlink="http://www.w3.org/1999/xlink" width="1944" height="1197" preserveAspectRatio="xMidYMid" viewBox="0 0 1944 1197" style="z-index:1;margin-right:-2px;display:block;background-repeat-y:initial;background-repeat-x:initial;background-color:rgb(255, 255, 255);animation-play-state:paused" ><g transform="translate(972,598.5) scale(1,1) translate(-972,-598.5)" style="transform:matrix(1, 0, 0, 1, 0, 0);animation-play-state:paused" ><linearGradient id="lg-0.5756699579172324" x1="0" x2="1" y1="0" y2="0" style="animation-play-state:paused" ><stop stop-color="#ff00ff" offset="0" style="animation-play-state:paused" ></stop>

  
<stop stop-color="#00ffff" offset="1" style="animation-play-state:paused" ></stop></linearGradient>
<path d="M 0 0 M 0 812.163 Q 194.4 787.872 388.8 781.419 T 777.6 823.707 T 1166.4 822.58 T 1555.2 855.182 T 1944 856.442 L 1944 336.169 Q 1749.6 354.125 1555.2 344.792 T 1166.4 348.75 T 777.6 371.914 T 388.8 379.529 T 0 400.874 Z" fill="url(#lg-0.5756699579172324)" opacity="0.71" style="opacity:0.71;animation-play-state:paused" ></path>
<path d="M 0 0 M 0 791.215 Q 194.4 821.564 388.8 818.201 T 777.6 826.185 T 1166.4 821.792 T 1555.2 832.864 T 1944 867.782 L 1944 352.389 Q 1749.6 361.811 1555.2 360.404 T 1166.4 373.317 T 777.6 370.438 T 388.8 398.236 T 0 411.082 Z" fill="url(#lg-0.5756699579172324)" opacity="0.71" style="opacity:0.71;animation-play-state:paused" ></path></g></svg>