<?xml version="1.0" encoding="utf-8"?><svg xmlns="http://www.w3.org/2000/svg" xmlns:xlink="http://www.w3.org/1999/xlink" width="1944" height="1197" preserveAspectRatio="xMidYMid" viewBox="0 0 1944 1197" style="z-index:1;margin-right:-2px;display:block;background-repeat-y:initial;background-repeat-x:initial;background-color:rgb(255, 255, 255);animation-play-state:paused" ><g transform="translate(972,598.5) scale(1,1) translate(-972,-598.5)" style="transform:matrix(1, 0, 0, 1, 0, 0);animation-play-state:paused" ><linearGradient id="lg-0.43309817176497223" x1="0" x2="1" y1="0" y2="0" style="animation-play-state:paused" ><stop stop-color="#ff00ff" offset="0" style="animation-play-state:paused" ></stop>

  
<stop stop-color="#00ffff" offset="1" style="animation-play-state:paused" ></stop></linearGradient>
<path d="M 0 0 M 0 779.907 Q 162 786.144 324 779.489 T 648 786.854 T 972 804.245 T 1296 826.383 T 1620 826.373 T 1944 828.181 L 1944 338.886 Q 1782 356.92 1620 347.364 T 1296 368.175 T 972 397.878 T 648 393.172 T 324 414.348 T 0 412.144 Z" fill="url(#lg-0.43309817176497223)" opacity="0.71" style="opacity:0.71;animation-play-state:paused" ></path>
<path d="M 0 0 M 0 790.17 Q 162 789.251 324 783.625 T 648 795.162 T 972 816.834 T 1296 825.407 T 1620 819.695 T 1944 835.729 L 1944 351.82 Q 1782 365.322 1620 361.535 T 1296 372.516 T 972 377.284 T 648 396.673 T 324 398.678 T 0 413.577 Z" fill="url(#lg-0.43309817176497223)" opacity="0.71" style="opacity:0.71;animation-play-state:paused" ></path>
<path d="M 0 0 M 0 791.47 Q 162 788.769 324 780.718 T 648 805.368 T 972 802.823 T 1296 806.36 T 1620 831.939 T 1944 861.266 L 1944 351.31 Q 1782 350.171 1620 345.97 T 1296 369.788 T 972 367.984 T 648 378.571 T 324 400.784 T 0 408.08 Z" fill="url(#lg-0.43309817176497223)" opacity="0.71" style="opacity:0.71;animation-play-state:paused" ></path>
<path d="M 0 0 M 0 778.976 Q 162 794.042 324 787.648 T 648 807.918 T 972 822.301 T 1296 816.455 T 1620 834.526 T 1944 837.742 L 1944 345.287 Q 1782 378.668 1620 372.3 T 1296 381.427 T 972 378.92 T 648 408.27 T 324 395.616 T 0 405.365 Z" fill="url(#lg-0.43309817176497223)" opacity="0.71" style="opacity:0.71;animation-play-state:paused" ></path>
<path d="M 0 0 M 0 789.606 Q 162 809.695 324 805.8 T 648 789.182 T 972 821.591 T 1296 826.245 T 1620 834.587 T 1944 829.83 L 1944 336.618 Q 1782 378.263 1620 375.02 T 1296 384.86 T 972 366.255 T 648 397.846 T 324 418.165 T 0 413.116 Z" fill="url(#lg-0.43309817176497223)" opacity="0.71" style="opacity:0.71;animation-play-state:paused" ></path>
<path d="M 0 0 M 0 789.358 Q 162 792.11 324 786.953 T 648 793.927 T 972 819.283 T 1296 821.795 T 1620 843.453 T 1944 841.468 L 1944 349.856 Q 1782 374.007 1620 366.606 T 1296 379.713 T 972 393.381 T 648 388.603 T 324 400.489 T 0 405.197 Z" fill="url(#lg-0.43309817176497223)" opacity="0.71" style="opacity:0.71;animation-play-state:paused" ></path></g></svg>