<?xml version="1.0" encoding="utf-8"?><svg xmlns="http://www.w3.org/2000/svg" xmlns:xlink="http://www.w3.org/1999/xlink" width="1944" height="1197" preserveAspectRatio="xMidYMid" viewBox="0 0 1944 1197" style="z-index:1;margin-right:-2px;display:block;background-repeat-y:initial;background-repeat-x:initial;background-color:rgb(255, 255, 255);animation-play-state:paused" ><g transform="translate(972,598.5) scale(1,1) translate(-972,-598.5)" style="transform:matrix(1, 0, 0, 1, 0, 0);animation-play-state:paused" ><linearGradient id="lg-0.7116336292599774" x1="0" x2="1" y1="0" y2="0" style="animation-play-state:paused" ><stop stop-color="#ff00ff" offset="0" style="animation-play-state:paused" ></stop>

  
<stop stop-color="#00ffff" offset="1" style="animation-play-state:paused" ></stop></linearGradient>
<path d="M 0 0 M 0 794.784 Q 194.4 826.311 388.8 823.233 T 777.6 808.516 T 1166.4 849.129 T 1555.2 830.222 T 1944 840.047 L 1944 332.269 Q 1749.6 386.162 1555.2 381.574 T 1166.4 361.639 T 777.6 395.755 T 388.8 398.555 T 0 383.99 Z" fill="url(#lg-0.7116336292599774)" opacity="0.4" style="opacity:0.4;animation-play-state:paused" ></path>
<path d="M 0 0 M 0 797.675 Q 194.4 793.753 388.8 792.701 T 777.6 808.896 T 1166.4 818.83 T 1555.2 846.069 T 1944 846.66 L 1944 366.737 Q 1749.6 341.468 1555.2 339.209 T 1166.4 376.61 T 777.6 378.164 T 388.8 385.908 T 0 416.034 Z" fill="url(#lg-0.7116336292599774)" opacity="0.4" style="opacity:0.4;animation-play-state:paused" ></path></g></svg>