<svg width="747.7275634765625px" height="182.26484374999998px" xmlns="http://www.w3.org/2000/svg" viewBox="-123.86378173828126 -16.13242187499999 747.7275634765625 182.26484374999998" style="background: rgba(0, 0, 0, 0);" preserveAspectRatio="xMidYMid"><defs><linearGradient id="editing-gradient-gradient" x1="0" x2="1" y1="0.5" y2="0.5" gradientUnits="objectBoundingBox"><stop offset="0" stop-color="#ffffff"></stop><stop offset="1" stop-color="#ffffff"></stop></linearGradient></defs><g><g transform="translate(-15.580010890960693, 111.65499877929688)"><path d="M59.49-11.17L59.49-34.30L66.44-34.30L66.44-8.13L66.44-8.13Q61.64-3.92 55.08-1.67L55.08-1.67L55.08-1.67Q48.51 0.59 41.26 0.59L41.26 0.59L41.26 0.59Q30.97 0.59 22.74-3.92L22.74-3.92L22.74-3.92Q14.50-8.43 9.80-16.41L9.80-16.41L9.80-16.41Q5.10-24.40 5.10-34.30L5.10-34.30L5.10-34.30Q5.10-44.20 9.80-52.19L9.80-52.19L9.80-52.19Q14.50-60.17 22.74-64.68L22.74-64.68L22.74-64.68Q30.97-69.19 41.36-69.19L41.36-69.19L41.36-69.19Q49.20-69.19 55.76-66.69L55.76-66.69L55.76-66.69Q62.33-64.19 66.84-59.29L66.84-59.29L62.33-54.68L62.33-54.68Q54.19-62.72 41.65-62.72L41.65-62.72L41.65-62.72Q33.32-62.72 26.61-59.05L26.61-59.05L26.61-59.05Q19.89-55.37 16.07-48.85L16.07-48.85L16.07-48.85Q12.25-42.34 12.25-34.30L12.25-34.30L12.25-34.30Q12.25-26.26 16.07-19.80L16.07-19.80L16.07-19.80Q19.89-13.33 26.56-9.60L26.56-9.60L26.56-9.60Q33.22-5.88 41.55-5.88L41.55-5.88L41.55-5.88Q52.14-5.88 59.49-11.17L59.49-11.17ZM130.44-25.77L130.34-23.62L87.22-23.62L87.22-23.62Q87.81-15.58 93.39-10.63L93.39-10.63L93.39-10.63Q98.98-5.68 107.51-5.68L107.51-5.68L107.51-5.68Q112.31-5.68 116.33-7.40L116.33-7.40L116.33-7.40Q120.34-9.11 123.28-12.45L123.28-12.45L127.20-7.94L127.20-7.94Q123.77-3.82 118.63-1.67L118.63-1.67L118.63-1.67Q113.48 0.49 107.31 0.49L107.31 0.49L107.31 0.49Q99.37 0.49 93.25-2.89L93.25-2.89L93.25-2.89Q87.12-6.27 83.69-12.25L83.69-12.25L83.69-12.25Q80.26-18.23 80.26-25.77L80.26-25.77L80.26-25.77Q80.26-33.32 83.55-39.30L83.55-39.30L83.55-39.30Q86.83-45.28 92.56-48.61L92.56-48.61L92.56-48.61Q98.29-51.94 105.45-51.94L105.45-51.94L105.45-51.94Q112.60-51.94 118.29-48.61L118.29-48.61L118.29-48.61Q123.97-45.28 127.20-39.35L127.20-39.35L127.20-39.35Q130.44-33.42 130.44-25.77L130.44-25.77ZM105.45-45.96L105.45-45.96Q98-45.96 92.95-41.21L92.95-41.21L92.95-41.21Q87.91-36.46 87.22-28.81L87.22-28.81L123.77-28.81L123.77-28.81Q123.09-36.46 118.04-41.21L118.04-41.21L118.04-41.21Q112.99-45.96 105.45-45.96L105.45-45.96ZM169.34-8.13L171.79-3.14L171.79-3.14Q169.83-1.37 166.94-0.44L166.94-0.44L166.94-0.44Q164.05 0.49 160.92 0.49L160.92 0.49L160.92 0.49Q153.66 0.49 149.74-3.43L149.74-3.43L149.74-3.43Q145.82-7.35 145.82-14.50L145.82-14.50L145.82-45.67L136.61-45.67L136.61-51.55L145.82-51.55L145.82-62.82L152.78-62.82L152.78-51.55L168.46-51.55L168.46-45.67L152.78-45.67L152.78-14.90L152.78-14.90Q152.78-10.29 155.09-7.89L155.09-7.89L155.09-7.89Q157.39-5.49 161.70-5.49L161.70-5.49L161.70-5.49Q163.86-5.49 165.87-6.17L165.87-6.17L165.87-6.17Q167.87-6.86 169.34-8.13L169.34-8.13ZM237.26-68.60L237.26-68.60Q250.39-68.60 257.84-62.33L257.84-62.33L257.84-62.33Q265.29-56.06 265.29-45.08L265.29-45.08L265.29-45.08Q265.29-34.10 257.84-27.88L257.84-27.88L257.84-27.88Q250.39-21.66 237.26-21.66L237.26-21.66L218.83-21.66L218.83 0L211.58 0L211.58-68.60L237.26-68.60ZM237.06-28.03L237.06-28.03Q247.25-28.03 252.64-32.49L252.64-32.49L252.64-32.49Q258.03-36.95 258.03-45.08L258.03-45.08L258.03-45.08Q258.03-53.41 252.64-57.87L252.64-57.87L252.64-57.87Q247.25-62.33 237.06-62.33L237.06-62.33L218.83-62.33L218.83-28.03L237.06-28.03ZM280.48 0L280.48-72.72L287.43-72.72L287.43 0L280.48 0ZM324.87-51.94L324.87-51.94Q334.96-51.94 340.35-46.89L340.35-46.89L340.35-46.89Q345.74-41.85 345.74-31.95L345.74-31.95L345.74 0L339.08 0L339.08-8.04L339.08-8.04Q336.73-4.02 332.17-1.76L332.17-1.76L332.17-1.76Q327.61 0.49 321.34 0.49L321.34 0.49L321.34 0.49Q312.72 0.49 307.62-3.63L307.62-3.63L307.62-3.63Q302.53-7.74 302.53-14.50L302.53-14.50L302.53-14.50Q302.53-21.07 307.28-25.09L307.28-25.09L307.28-25.09Q312.03-29.11 322.42-29.11L322.42-29.11L338.79-29.11L338.79-32.24L338.79-32.24Q338.79-38.91 335.06-42.39L335.06-42.39L335.06-42.39Q331.34-45.86 324.18-45.86L324.18-45.86L324.18-45.86Q319.28-45.86 314.78-44.25L314.78-44.25L314.78-44.25Q310.27-42.63 307.03-39.79L307.03-39.79L303.90-44.98L303.90-44.98Q307.82-48.31 313.31-50.13L313.31-50.13L313.31-50.13Q318.79-51.94 324.87-51.94L324.87-51.94ZM322.42-5.00L322.42-5.00Q328.30-5.00 332.51-7.69L332.51-7.69L332.51-7.69Q336.73-10.39 338.79-15.48L338.79-15.48L338.79-23.91L322.62-23.91L322.62-23.91Q309.39-23.91 309.39-14.70L309.39-14.70L309.39-14.70Q309.39-10.19 312.82-7.60L312.82-7.60L312.82-7.60Q316.25-5.00 322.42-5.00L322.42-5.00ZM386.02 0.49L386.02 0.49Q378.38 0.49 372.35-2.84L372.35-2.84L372.35-2.84Q366.32-6.17 362.89-12.20L362.89-12.20L362.89-12.20Q359.46-18.23 359.46-25.77L359.46-25.77L359.46-25.77Q359.46-33.32 362.89-39.30L362.89-39.30L362.89-39.30Q366.32-45.28 372.35-48.61L372.35-48.61L372.35-48.61Q378.38-51.94 386.02-51.94L386.02-51.94L386.02-51.94Q392.69-51.94 397.93-49.34L397.93-49.34L397.93-49.34Q403.17-46.75 406.21-41.75L406.21-41.75L401.02-38.22L401.02-38.22Q398.47-42.04 394.55-43.95L394.55-43.95L394.55-43.95Q390.63-45.86 386.02-45.86L386.02-45.86L386.02-45.86Q380.44-45.86 375.98-43.37L375.98-43.37L375.98-43.37Q371.52-40.87 369.02-36.26L369.02-36.26L369.02-36.26Q366.52-31.65 366.52-25.77L366.52-25.77L366.52-25.77Q366.52-19.80 369.02-15.24L369.02-15.24L369.02-15.24Q371.52-10.68 375.98-8.18L375.98-8.18L375.98-8.18Q380.44-5.68 386.02-5.68L386.02-5.68L386.02-5.68Q390.63-5.68 394.55-7.55L394.55-7.55L394.55-7.55Q398.47-9.41 401.02-13.23L401.02-13.23L406.21-9.70L406.21-9.70Q403.17-4.70 397.88-2.11L397.88-2.11L397.88-2.11Q392.59 0.49 386.02 0.49L386.02 0.49ZM464.81-25.77L464.72-23.62L421.60-23.62L421.60-23.62Q422.18-15.58 427.77-10.63L427.77-10.63L427.77-10.63Q433.36-5.68 441.88-5.68L441.88-5.68L441.88-5.68Q446.68-5.68 450.70-7.40L450.70-7.40L450.70-7.40Q454.72-9.11 457.66-12.45L457.66-12.45L461.58-7.94L461.58-7.94Q458.15-3.82 453.00-1.67L453.00-1.67L453.00-1.67Q447.86 0.49 441.69 0.49L441.69 0.49L441.69 0.49Q433.75 0.49 427.62-2.89L427.62-2.89L427.62-2.89Q421.50-6.27 418.07-12.25L418.07-12.25L418.07-12.25Q414.64-18.23 414.64-25.77L414.64-25.77L414.64-25.77Q414.64-33.32 417.92-39.30L417.92-39.30L417.92-39.30Q421.20-45.28 426.94-48.61L426.94-48.61L426.94-48.61Q432.67-51.94 439.82-51.94L439.82-51.94L439.82-51.94Q446.98-51.94 452.66-48.61L452.66-48.61L452.66-48.61Q458.35-45.28 461.58-39.35L461.58-39.35L461.58-39.35Q464.81-33.42 464.81-25.77L464.81-25.77ZM439.82-45.96L439.82-45.96Q432.38-45.96 427.33-41.21L427.33-41.21L427.33-41.21Q422.28-36.46 421.60-28.81L421.60-28.81L458.15-28.81L458.15-28.81Q457.46-36.46 452.42-41.21L452.42-41.21L452.42-41.21Q447.37-45.96 439.82-45.96L439.82-45.96ZM519.11-72.72L526.06-72.72L526.06 0L519.40 0L519.40-10.19L519.40-10.19Q516.26-5.00 511.12-2.25L511.12-2.25L511.12-2.25Q505.97 0.49 499.51 0.49L499.51 0.49L499.51 0.49Q492.25 0.49 486.37-2.84L486.37-2.84L486.37-2.84Q480.49-6.17 477.16-12.15L477.16-12.15L477.16-12.15Q473.83-18.13 473.83-25.77L473.83-25.77L473.83-25.77Q473.83-33.42 477.16-39.40L477.16-39.40L477.16-39.40Q480.49-45.37 486.37-48.66L486.37-48.66L486.37-48.66Q492.25-51.94 499.51-51.94L499.51-51.94L499.51-51.94Q505.78-51.94 510.82-49.34L510.82-49.34L510.82-49.34Q515.87-46.75 519.11-41.75L519.11-41.75L519.11-72.72ZM500.09-5.68L500.09-5.68Q505.48-5.68 509.85-8.18L509.85-8.18L509.85-8.18Q514.21-10.68 516.71-15.29L516.71-15.29L516.71-15.29Q519.20-19.89 519.20-25.77L519.20-25.77L519.20-25.77Q519.20-31.65 516.71-36.26L516.71-36.26L516.71-36.26Q514.21-40.87 509.85-43.37L509.85-43.37L509.85-43.37Q505.48-45.86 500.09-45.86L500.09-45.86L500.09-45.86Q494.61-45.86 490.25-43.37L490.25-43.37L490.25-43.37Q485.88-40.87 483.38-36.26L483.38-36.26L483.38-36.26Q480.89-31.65 480.89-25.77L480.89-25.77L480.89-25.77Q480.89-19.89 483.38-15.29L483.38-15.29L483.38-15.29Q485.88-10.68 490.25-8.18L490.25-8.18L490.25-8.18Q494.61-5.68 500.09-5.68L500.09-5.68Z" fill="url(#editing-gradient-gradient)"></path></g></g><style>text {
  font-size: 64px;
  font-family: Arial Black;
  dominant-baseline: central;
  text-anchor: middle;
}</style></svg>