<?xml version="1.0"?>
<svg xmlns="http://www.w3.org/2000/svg" xmlns:xlink="http://www.w3.org/1999/xlink" xmlns:svgjs="http://svgjs.com/svgjs" version="1.1" width="512" height="512" x="0" y="0" viewBox="0 0 64 64" style="enable-background:new 0 0 512 512" xml:space="preserve" class=""><g transform="matrix(0.58,0,0,0.58,13.440000000000001,13.440000000000001)"><g xmlns="http://www.w3.org/2000/svg"><path d="m15 29c7.72 0 14-6.28 14-14s-6.28-14-14-14-14 6.28-14 14 6.28 14 14 14zm0-26c6.617 0 12 5.383 12 12s-5.383 12-12 12-12-5.383-12-12 5.383-12 12-12z" fill="#4534aa" data-original="#000000" style="" class=""/><path d="m6.754 14h16.492v2h-16.492z" transform="matrix(.242 -.97 .97 .242 -3.186 25.921)" fill="#4534aa" data-original="#000000" style="" class=""/><path d="m19.707 20.707 5.707-5.707-5.707-5.707-1.414 1.414 4.293 4.293-4.293 4.293z" fill="#4534aa" data-original="#000000" style="" class=""/><path d="m11.707 19.293-4.293-4.293 4.293-4.293-1.414-1.414-5.707 5.707 5.707 5.707z" fill="#4534aa" data-original="#000000" style="" class=""/><path d="m45 57h2v2h-2z" fill="#4534aa" data-original="#000000" style="" class=""/><path d="m49 57h2v2h-2z" fill="#4534aa" data-original="#000000" style="" class=""/><path d="m53 57h2v2h-2z" fill="#4534aa" data-original="#000000" style="" class=""/><path d="m57 57h2v2h-2z" fill="#4534aa" data-original="#000000" style="" class=""/><path d="m57 45h2v2h-2z" fill="#4534aa" data-original="#000000" style="" class=""/><path d="m45 45h2v2h-2z" fill="#4534aa" data-original="#000000" style="" class=""/><path d="m53 45h2v2h-2z" fill="#4534aa" data-original="#000000" style="" class=""/><path d="m49 45h2v2h-2z" fill="#4534aa" data-original="#000000" style="" class=""/><path d="m45 33h2v2h-2z" fill="#4534aa" data-original="#000000" style="" class=""/><path d="m49 33h2v2h-2z" fill="#4534aa" data-original="#000000" style="" class=""/><path d="m57 33h2v2h-2z" fill="#4534aa" data-original="#000000" style="" class=""/><path d="m53 33h2v2h-2z" fill="#4534aa" data-original="#000000" style="" class=""/><path d="m60 27c1.654 0 3-1.346 3-3v-4c0-1.654-1.346-3-3-3h-7v-2.142c1.72-.447 3-1.999 3-3.858 0-2.206-1.794-4-4-4-1.858 0-3.411 1.279-3.858 3h-18.142v2h18.142c.364 1.399 1.459 2.494 2.858 2.858v2.142h-7c-1.654 0-3 1.346-3 3v4c0 1.654 1.346 3 3 3h7v2h-7c-1.654 0-3 1.346-3 3v4c0 1.654 1.346 3 3 3h7v2h-7c-1.654 0-3 1.346-3 3v4c0 1.654 1.346 3 3 3h7v2h-7c-1.654 0-3 1.346-3 3v4c0 1.654 1.346 3 3 3h16c1.654 0 3-1.346 3-3v-4c0-1.654-1.346-3-3-3h-7v-2h7c1.654 0 3-1.346 3-3v-4c0-1.654-1.346-3-3-3h-7v-2h7c1.654 0 3-1.346 3-3v-4c0-1.654-1.346-3-3-3h-7v-2zm-10-16c0-1.103.897-2 2-2s2 .897 2 2-.897 2-2 2-2-.897-2-2zm10 44c.551 0 1 .448 1 1v4c0 .552-.449 1-1 1h-16c-.551 0-1-.448-1-1v-4c0-.552.449-1 1-1zm0-12c.551 0 1 .448 1 1v4c0 .552-.449 1-1 1h-16c-.551 0-1-.448-1-1v-4c0-.552.449-1 1-1zm0-12c.551 0 1 .448 1 1v4c0 .552-.449 1-1 1h-16c-.551 0-1-.448-1-1v-4c0-.552.449-1 1-1zm-16-6c-.551 0-1-.448-1-1v-4c0-.552.449-1 1-1h16c.551 0 1 .448 1 1v4c0 .552-.449 1-1 1z" fill="#4534aa" data-original="#000000" style="" class=""/><path d="m57 21h2v2h-2z" fill="#4534aa" data-original="#000000" style="" class=""/><path d="m49 21h2v2h-2z" fill="#4534aa" data-original="#000000" style="" class=""/><path d="m45 21h2v2h-2z" fill="#4534aa" data-original="#000000" style="" class=""/><path d="m53 21h2v2h-2z" fill="#4534aa" data-original="#000000" style="" class=""/><path d="m5 37h4v2h-4z" fill="#4534aa" data-original="#000000" style="" class=""/><path d="m11 37h20v2h-20z" fill="#4534aa" data-original="#000000" style="" class=""/><path d="m29 41h2v2h-2z" fill="#4534aa" data-original="#000000" style="" class=""/><path d="m5 41h22v2h-22z" fill="#4534aa" data-original="#000000" style="" class=""/><path d="m5 45h26v2h-26z" fill="#4534aa" data-original="#000000" style="" class=""/><path d="m23 49h8v2h-8z" fill="#4534aa" data-original="#000000" style="" class=""/><path d="m19 49h2v2h-2z" fill="#4534aa" data-original="#000000" style="" class=""/><path d="m5 49h12v2h-12z" fill="#4534aa" data-original="#000000" style="" class=""/><path d="m5 53h6v2h-6z" fill="#4534aa" data-original="#000000" style="" class=""/><path d="m13 53h18v2h-18z" fill="#4534aa" data-original="#000000" style="" class=""/><path d="m5 57h26v2h-26z" fill="#4534aa" data-original="#000000" style="" class=""/><path d="m5 33h26v2h-26z" fill="#4534aa" data-original="#000000" style="" class=""/></g></g></svg>
