<svg xmlns="http://www.w3.org/2000/svg" width="256" height="256" viewBox="0 0 100 100"><rect width="100" height="100" rx="20" fill="#7d6ee7"></rect><path d="M47.90 51.02L47.90 64.04Q47.90 65.12 47.27 65.84Q46.64 66.56 45.38 67.22L45.38 67.22Q43.88 67.94 41.24 68.48Q38.60 69.02 35.90 69.02L35.90 69.02Q31.70 69.02 28.22 67.88Q24.74 66.74 22.22 64.40Q19.70 62.06 18.32 58.49Q16.94 54.92 16.94 50.06L16.94 50.06Q16.94 45.26 18.38 41.66Q19.82 38.06 22.31 35.69Q24.80 33.32 28.10 32.15Q31.40 30.98 35.12 30.98L35.12 30.98Q37.64 30.98 39.77 31.40Q41.90 31.82 43.40 32.51Q44.90 33.20 45.74 34.04Q46.58 34.88 46.58 35.72L46.58 35.72Q46.58 36.56 46.10 37.16Q45.62 37.76 44.96 38.06L44.96 38.06Q43.34 36.98 41.12 36.05Q38.90 35.12 35.42 35.12L35.42 35.12Q32.54 35.12 30.08 36.08Q27.62 37.04 25.82 38.90Q24.02 40.76 23.00 43.58Q21.98 46.40 21.98 50.06L21.98 50.06Q21.98 53.96 23.03 56.75Q24.08 59.54 25.97 61.34Q27.86 63.14 30.41 64.01Q32.96 64.88 35.96 64.88L35.96 64.88Q38.12 64.88 40.04 64.52Q41.96 64.16 43.04 63.62L43.04 63.62L43.04 52.58L33.98 52.58Q33.80 52.28 33.62 51.77Q33.44 51.26 33.44 50.66L33.44 50.66Q33.44 49.64 33.92 49.07Q34.40 48.50 35.30 48.50L35.30 48.50L45.32 48.50Q46.40 48.50 47.15 49.19Q47.90 49.88 47.90 51.02L47.90 51.02ZM68.36 55.22L62.30 55.22L62.30 68.12Q61.94 68.24 61.34 68.39Q60.74 68.54 60.02 68.54L60.02 68.54Q57.38 68.54 57.38 66.32L57.38 66.32L57.38 34.40Q57.38 33.44 57.86 32.93Q58.34 32.42 59.36 32.12L59.36 32.12Q61.10 31.58 63.59 31.34Q66.08 31.10 68.42 31.10L68.42 31.10Q76.04 31.10 79.55 34.31Q83.06 37.52 83.06 42.98L83.06 42.98Q83.06 48.56 79.46 51.89Q75.86 55.22 68.36 55.22L68.36 55.22ZM62.24 51.14L68.06 51.14Q72.86 51.14 75.50 49.16Q78.14 47.18 78.14 43.04L78.14 43.04Q78.14 38.96 75.59 37.07Q73.04 35.18 68.30 35.18L68.30 35.18Q66.68 35.18 65.09 35.33Q63.50 35.48 62.24 35.72L62.24 35.72L62.24 51.14Z" fill="#fff"></path></svg>