<?xml version="1.0" encoding="utf-8"?><svg xmlns="http://www.w3.org/2000/svg" xmlns:xlink="http://www.w3.org/1999/xlink" width="505" height="418" preserveAspectRatio="xMidYMid" viewBox="0 0 505 418" style="z-index:1;margin-right:-2px;display:block;background-repeat-y:initial;background-repeat-x:initial;background-color:rgb(255, 255, 255);animation-play-state:paused" ><g transform="translate(252.5,209) scale(1,1) translate(-252.5,-209)" style="transform:matrix(1, 0, 0, 1, 0, 0);animation-play-state:paused" ><linearGradient id="lg-0.234648697287402" x1="0" x2="1" y1="0" y2="0" style="animation-play-state:paused" ><stop stop-color="#4534aa" offset="0" style="animation-play-state:paused" ></stop>

  
<stop stop-color="#6c63ff" offset="1" style="animation-play-state:paused" ></stop></linearGradient>
<path d="M 460.8 209 C 460.8 268.2 358.8 345 302.6 363.4 C 246.4 381.8 124.8 375.2 90 327.2 C 55.2 279.2 48.8 134.2 83.6 86.2 C 118.4 38.2 246.6 37 302.8 55.4 C 359 73.8 460.8 149.8 460.8 209" fill="url(#lg-0.234648697287402)" opacity="0.4" style="opacity:0.4;animation-play-state:paused" ></path>
<path d="M 483.6 209 C 483.6 277 375.4 367.8 311.2 388.6 C 247 409.4 118.8 390.4 79.2 335.2 C 39.6 280 40.4 138.8 80 83.6 C 119.6 28.4 248.8 2.8 313 23.6 C 377.2 44.4 483.6 141 483.6 209" fill="url(#lg-0.234648697287402)" opacity="0.4" style="opacity:0.4;animation-play-state:paused" ></path>
<path d="M 466.6 209 C 466.6 272.4 356.8 323.4 296.4 343.2 C 236 363 138.4 370 101.6 318.6 C 64.8 267.2 35.2 129.6 72 78.2 C 108.8 26.8 240.8 38.8 301.2 58.6 C 361.6 78.4 466.6 145.6 466.6 209" fill="url(#lg-0.234648697287402)" opacity="0.4" style="opacity:0.4;animation-play-state:paused" ></path>
<path d="M 469.6 209 C 469.6 274.4 367 348.6 304.6 369.2 C 242.2 389.8 125.8 382.4 87.2 329 C 48.6 275.6 51.8 144.8 90.4 91.4 C 129 38 237.2 43.6 299.6 63.4 C 362 83.2 469.6 143.6 469.6 209" fill="url(#lg-0.234648697287402)" opacity="0.4" style="opacity:0.4;animation-play-state:paused" ></path>
<path d="M 469.6 209 C 469.6 269.6 354.2 324.6 296.6 343.8 C 239 363 110.8 386.4 75.4 337.8 C 40 289.2 59.4 142.8 94.8 94.2 C 130.2 45.6 242 45 299.6 63.4 C 357.2 81.8 469.6 148.4 469.6 209" fill="url(#lg-0.234648697287402)" opacity="0.4" style="opacity:0.4;animation-play-state:paused" ></path></g></svg>