<?xml version="1.0" encoding="utf-8"?><svg xmlns="http://www.w3.org/2000/svg" xmlns:xlink="http://www.w3.org/1999/xlink" width="1536" height="722" preserveAspectRatio="xMidYMid" viewBox="0 0 1536 722" style="z-index:1;margin-right:-2px;display:block;background-repeat-y:initial;background-repeat-x:initial;background-color:rgb(255, 255, 255);animation-play-state:paused" ><g transform="translate(768,361) scale(-1,-1) translate(-768,-361)" style="transform:matrix(-1, 0, 0, -1, 1536, 722);animation-play-state:paused" ><linearGradient id="lg-0.880623638510045" x1="0" x2="1" y1="0" y2="0" style="animation-play-state:paused" ><stop stop-color="#00ffff" offset="0" style="animation-play-state:paused" ></stop>

  
<stop stop-color="#ff00ff" offset="1" style="animation-play-state:paused" ></stop></linearGradient>
<path d="M 0 0 L 0 650.473 Q 256 586.418 512 553.151 T 1024 480.388 T 1536 368.56 L 1536 0 Z" fill="url(#lg-0.880623638510045)" opacity="0.72" style="opacity:0.72;animation-play-state:paused" ></path>
<path d="M 0 0 L 0 668.847 Q 256 621.52 512 590.996 T 1024 457.041 T 1536 308.064 L 1536 0 Z" fill="url(#lg-0.880623638510045)" opacity="0.72" style="opacity:0.72;animation-play-state:paused" ></path>
<path d="M 0 0 L 0 700.161 Q 256 540.468 512 510.369 T 1024 463.146 T 1536 314.637 L 1536 0 Z" fill="url(#lg-0.880623638510045)" opacity="0.72" style="opacity:0.72;animation-play-state:paused" ></path>
<path d="M 0 0 L 0 666.875 Q 256 535.263 512 505.112 T 1024 412.152 T 1536 330.771 L 1536 0 Z" fill="url(#lg-0.880623638510045)" opacity="0.72" style="opacity:0.72;animation-play-state:paused" ></path></g></svg>