<?xml version="1.0" encoding="utf-8"?><svg xmlns="http://www.w3.org/2000/svg" xmlns:xlink="http://www.w3.org/1999/xlink" width="1535" height="762" preserveAspectRatio="xMidYMid" viewBox="0 0 1535 762" style="z-index:1;margin-right:-2px;display:block;background-repeat-y:initial;background-repeat-x:initial;background-color:rgb(255, 255, 255);animation-play-state:paused" ><g transform="translate(767.5,381) scale(1,1) translate(-767.5,-381)" style="transform:matrix(1, 0, 0, 1, 0, 0);animation-play-state:paused" ><g transform="translate(1253.618333937369,152.2500756066647) scale(100)" opacity="0.71" style="transform:matrix(100, 0, 0, 100, 1253.62, 152.25);opacity:0.71;animation-play-state:paused" ><path d="M5.2381874999999996 0 C5.2381874999999996 1.2356749999999999 5.386877018877692 1.6832803091786628 4.769039518877693 2.753406249999999 S3.689219690821336 3.9185659447860983 2.61909375 4.536403444786099 S1.2356750000000003 5.506812499999999 3.3719501508148164e-16 5.506812499999999 S-1.5489678091786623 5.154240944786099 -2.6190937499999984 4.5364034447860995 S-4.151202018877692 3.823532190821337 -4.769039518877692 2.753406250000001 S-5.2381874999999996 1.2356750000000005 -5.2381874999999996 6.414929555208676e-16 S-5.386877018877693 -1.6832803091786617 -4.769039518877694 -2.753406249999998 S-3.689219690821338 -3.9185659447860974 -2.619093750000002 -4.536403444786098 S-1.235675000000001 -5.506812499999999 -1.0115850452444448e-15 -5.506812499999999 S1.5489678091786596 -5.154240944786101 2.6190937499999962 -4.536403444786101 S4.151202018877691 -3.8235321908213376 4.769039518877691 -2.753406250000002 S5.2381874999999996 -1.2356750000000012 5.2381874999999996 -1.2829859110417351e-15" fill="#4534aa" stroke-width="0" transform="matrix(1,0,0,1,0,0)" style="transform:matrix(1, 0, 0, 1, 0, 0);animation-play-state:paused" ></path></g>
<g transform="translate(1350.8420007248428,106.50009072799764) scale(100)" opacity="0.71" style="transform:matrix(100, 0, 0, 100, 1350.84, 106.5);opacity:0.71;animation-play-state:paused" ><path d="M6.285824999999999 0 C6.285824999999999 1.4828099999999997 6.464252422653232 2.0199363710143956 5.722847422653232 3.3040874999999987 S4.427063628985604 4.702279133743318 3.1429125000000004 5.443684133743318 S1.4828100000000002 6.608174999999998 4.0463401809777793e-16 6.608174999999998 S-1.8587613710143949 6.185089133743318 -3.142912499999998 5.443684133743319 S-4.98144242265323 4.5882386289856045 -5.72284742265323 3.3040875000000014 S-6.285824999999999 1.4828100000000004 -6.285824999999999 7.69791546625041e-16 S-6.464252422653232 -2.019936371014394 -5.722847422653232 -3.3040874999999974 S-4.427063628985605 -4.702279133743317 -3.142912500000002 -5.443684133743317 S-1.4828100000000008 -6.608174999999998 -1.2139020542933338e-15 -6.608174999999998 S1.8587613710143918 -6.185089133743319 3.1429124999999956 -5.443684133743321 S4.981442422653229 -4.588238628985605 5.7228474226532295 -3.3040875000000023 S6.285824999999999 -1.4828100000000013 6.285824999999999 -1.539583093250082e-15" fill="#4534aa" stroke-width="0" transform="matrix(1,0,0,1,0,0)" style="transform:matrix(1, 0, 0, 1, 0, 0);animation-play-state:paused" ></path></g></g></svg>