<?xml version="1.0" encoding="utf-8"?><svg xmlns="http://www.w3.org/2000/svg" xmlns:xlink="http://www.w3.org/1999/xlink" width="1944" height="1197" preserveAspectRatio="xMidYMid" viewBox="0 0 1944 1197" style="z-index:1;margin-right:-2px;display:block;background-repeat-y:initial;background-repeat-x:initial;background-color:rgb(255, 255, 255);animation-play-state:paused" ><g transform="translate(972,598.5) scale(1,1) translate(-972,-598.5)" style="transform:matrix(1, 0, 0, 1, 0, 0);animation-play-state:paused" ><linearGradient id="lg-0.25744939717339976" x1="0" x2="1" y1="0" y2="0" style="animation-play-state:paused" ><stop stop-color="#4534aa" offset="0" style="animation-play-state:paused" ></stop>

  
<stop stop-color="#4534aa" offset="1" style="animation-play-state:paused" ></stop></linearGradient>
<path d="M 0 0 M 0 779.076 Q 162 794.132 324 786.196 T 648 799.505 T 972 817.283 T 1296 829.106 T 1620 842.378 T 1944 825.941 L 1944 360.184 Q 1782 374.074 1620 373.363 T 1296 376.395 T 972 377.219 T 648 391.065 T 324 401.074 T 0 428.021 Z" fill="url(#lg-0.25744939717339976)" opacity="0.71" style="opacity:0.71;animation-play-state:paused" ></path>
<path d="M 0 0 M 0 790.28 Q 162 803.105 324 799.691 T 648 811.235 T 972 813.385 T 1296 820.802 T 1620 820.838 T 1944 856.037 L 1944 361.953 Q 1782 377.46 1620 370.672 T 1296 380.48 T 972 382.751 T 648 400.834 T 324 404.058 T 0 395.112 Z" fill="url(#lg-0.25744939717339976)" opacity="0.71" style="opacity:0.71;animation-play-state:paused" ></path>
<path d="M 0 0 M 0 778.642 Q 162 802.365 324 798.673 T 648 801.276 T 972 829.718 T 1296 830.109 T 1620 849.192 T 1944 841.568 L 1944 343.705 Q 1782 370.009 1620 366.101 T 1296 360.448 T 972 379.993 T 648 404.854 T 324 417.397 T 0 424.43 Z" fill="url(#lg-0.25744939717339976)" opacity="0.71" style="opacity:0.71;animation-play-state:paused" ></path>
<path d="M 0 0 M 0 772.861 Q 162 785.957 324 783.22 T 648 803.054 T 972 807.791 T 1296 830.445 T 1620 837.722 T 1944 844.695 L 1944 360.146 Q 1782 370.215 1620 364.186 T 1296 371.851 T 972 389.044 T 648 387.881 T 324 409.767 T 0 426.07 Z" fill="url(#lg-0.25744939717339976)" opacity="0.71" style="opacity:0.71;animation-play-state:paused" ></path>
<path d="M 0 0 M 0 795.695 Q 162 786.776 324 785.073 T 648 819.529 T 972 802.359 T 1296 826.063 T 1620 846.121 T 1944 850.457 L 1944 349.915 Q 1782 372.779 1620 372.684 T 1296 381.219 T 972 380.176 T 648 410.042 T 324 387.328 T 0 427.461 Z" fill="url(#lg-0.25744939717339976)" opacity="0.71" style="opacity:0.71;animation-play-state:paused" ></path>
<path d="M 0 0 M 0 778.266 Q 162 795.928 324 791.825 T 648 809.592 T 972 830.356 T 1296 823.22 T 1620 835.55 T 1944 841.476 L 1944 345.479 Q 1782 361.883 1620 354.61 T 1296 376.12 T 972 387.677 T 648 387.513 T 324 395.559 T 0 413.249 Z" fill="url(#lg-0.25744939717339976)" opacity="0.71" style="opacity:0.71;animation-play-state:paused" ></path></g></svg>