<?xml version="1.0"?>
<svg xmlns="http://www.w3.org/2000/svg" xmlns:xlink="http://www.w3.org/1999/xlink" xmlns:svgjs="http://svgjs.com/svgjs" version="1.1" width="512" height="512" x="0" y="0" viewBox="0 0 512 512" style="enable-background:new 0 0 512 512" xml:space="preserve" class=""><g transform="matrix(0.5499999999999999,0,0,0.5499999999999999,115.20000000000002,113.40142135620124)"><g xmlns="http://www.w3.org/2000/svg"><path d="m496 128h-200v-64a8 8 0 0 0 -8-8h-272a8 8 0 0 0 -8 8v240a8 8 0 0 0 8 8h24v56a8 8 0 0 0 13.66 5.66l61.65-61.66h100.69v64a8 8 0 0 0 8 8h172.69l61.65 61.66a8 8 0 0 0 13.66-5.66v-56h24a8 8 0 0 0 8-8v-240a8 8 0 0 0 -8-8zm-384 168a8.008 8.008 0 0 0 -5.66 2.34l-50.34 50.35v-44.69a8 8 0 0 0 -8-8h-24v-224h256v224zm376 72h-24a8 8 0 0 0 -8 8v44.69l-50.34-50.35a8.008 8.008 0 0 0 -5.66-2.34h-168v-56h56a8 8 0 0 0 8-8v-160h192z" fill="#4534aa" data-original="#000000" style="" class=""/><path d="m144 88a64.072 64.072 0 0 0 -64 64 8 8 0 0 0 16 0 48 48 0 1 1 48 48 8 8 0 0 0 -8 8v32a8 8 0 0 0 16 0v-24.5a64 64 0 0 0 -8-127.5z" fill="#4534aa" data-original="#000000" style="" class=""/><path d="m144 256a8 8 0 0 0 -8 8v8a8 8 0 0 0 16 0v-8a8 8 0 0 0 -8-8z" fill="#4534aa" data-original="#000000" style="" class=""/><path d="m352 352a8 8 0 0 0 8-8v-8a8 8 0 0 0 -16 0v8a8 8 0 0 0 8 8z" fill="#4534aa" data-original="#000000" style="" class=""/><path d="m352 320a8 8 0 0 0 8-8v-144a8 8 0 0 0 -16 0v144a8 8 0 0 0 8 8z" fill="#4534aa" data-original="#000000" style="" class=""/></g></g></svg>
