<?xml version="1.0"?>
<svg xmlns="http://www.w3.org/2000/svg" xmlns:xlink="http://www.w3.org/1999/xlink" xmlns:svgjs="http://svgjs.com/svgjs" version="1.1" width="512" height="512" x="0" y="0" viewBox="0 0 24 24" style="enable-background:new 0 0 512 512" xml:space="preserve" class=""><g transform="matrix(0.45,0,0,0.45,6.600000000000001,6.599999999999998)"><path xmlns="http://www.w3.org/2000/svg" d="m4.75 18c-.192 0-.384-.073-.53-.22-.293-.293-.293-.768 0-1.061l4.719-4.719-4.719-4.72c-.293-.293-.293-.768 0-1.061s.768-.293 1.061 0l5.25 5.25c.293.293.293.768 0 1.061l-5.25 5.25c-.147.147-.339.22-.531.22z" fill="#4534aa" data-original="#000000" style="" class=""/><path xmlns="http://www.w3.org/2000/svg" d="m21.25 24h-18.5c-1.517 0-2.75-1.233-2.75-2.75v-18.5c0-1.517 1.233-2.75 2.75-2.75h18.5c1.517 0 2.75 1.233 2.75 2.75v18.5c0 1.517-1.233 2.75-2.75 2.75zm-18.5-22.5c-.689 0-1.25.561-1.25 1.25v18.5c0 .689.561 1.25 1.25 1.25h18.5c.689 0 1.25-.561 1.25-1.25v-18.5c0-.689-.561-1.25-1.25-1.25z" fill="#4534aa" data-original="#000000" style="" class=""/><path xmlns="http://www.w3.org/2000/svg" d="m19.25 18h-6.5c-.414 0-.75-.336-.75-.75s.336-.75.75-.75h6.5c.414 0 .75.336.75.75s-.336.75-.75.75z" fill="#4534aa" data-original="#000000" style="" class=""/></g></svg>
