<?xml version="1.0"?>
<svg xmlns="http://www.w3.org/2000/svg" xmlns:xlink="http://www.w3.org/1999/xlink" xmlns:svgjs="http://svgjs.com/svgjs" version="1.1" width="512" height="512" x="0" y="0" viewBox="0 0 512 512" style="enable-background:new 0 0 512 512" xml:space="preserve" class=""><g transform="matrix(0.5800000000000001,0,0,0.5800000000000001,107.499981250763,107.52018585205087)"><path xmlns="http://www.w3.org/2000/svg" d="M42.419,489H469.583A37.242,37.242,0,0,0,476,415.075v-252.9A36.916,36.916,0,0,0,438.818,125H415V54.678A31.678,31.678,0,0,0,383.322,23H128.678A31.678,31.678,0,0,0,97,54.678V125H73.175A36.953,36.953,0,0,0,36,162.178V415.066a35.654,35.654,0,0,0-19.865,10.352A37.268,37.268,0,0,0,5.091,451.885,37.075,37.075,0,0,0,42.419,489ZM415,137h23.816A24.917,24.917,0,0,1,464,162.181V414H435V171.968A6.1,6.1,0,0,0,428.856,166H415ZM129.168,237h58.268c23.9,0,27.628,18.413,29.4,37.355a50.093,50.093,0,0,0,1.153,8.164,6.336,6.336,0,0,0,5.245,4.939,6.264,6.264,0,0,0,3.78-.683c4.942-1.895,27.685-12.324,33.895-46.975A3.455,3.455,0,0,1,264.4,237H319a6,6,0,0,0,0-12H264.4a15.441,15.441,0,0,0-15.3,12.681c-3.631,20.262-13.72,30.281-20.387,34.8-1.4-14.868-5.1-47.481-41.272-47.481H128.953A19.953,19.953,0,0,1,109,205.047V54.678A19.678,19.678,0,0,1,128.678,35H383.047A19.953,19.953,0,0,1,403,54.953V205.047A19.953,19.953,0,0,1,383.047,225H361a6,6,0,0,0,0,12h22.047A31.953,31.953,0,0,0,415,205.047V178h8V414H313.493a6.187,6.187,0,0,0-4.968,2.822L297.693,433h-83.4l-10.834-16.178A6.183,6.183,0,0,0,198.492,414H89V178h8v26.832A32.263,32.263,0,0,0,129.168,237ZM48,162.175A24.943,24.943,0,0,1,73.182,137H97v29H83.144A6.1,6.1,0,0,0,77,171.968V414H48ZM24.441,433.637A25.431,25.431,0,0,1,42.419,426h152.89l10.834,16.178A6.185,6.185,0,0,0,211.111,445h89.764a6.183,6.183,0,0,0,4.967-2.822L316.675,426h152.9a25.646,25.646,0,0,1,17.979,43.71A25.1,25.1,0,0,1,469.579,477H42.421A25.151,25.151,0,0,1,17,451.8,25.683,25.683,0,0,1,24.441,433.637Z" fill="#4534aa" data-original="#000000" style="" class=""/><path xmlns="http://www.w3.org/2000/svg" d="M133.01,393H185.7a6,6,0,1,0,0-12H133.01a6,6,0,1,0,0,12Z" fill="#4534aa" data-original="#000000" style="" class=""/><path xmlns="http://www.w3.org/2000/svg" d="M329.147,381H218.777a6,6,0,0,0,0,12h110.37a6,6,0,0,0,0-12Z" fill="#4534aa" data-original="#000000" style="" class=""/><path xmlns="http://www.w3.org/2000/svg" d="M378.99,381H354.9a6,6,0,0,0,0,12H378.99a6,6,0,0,0,0-12Z" fill="#4534aa" data-original="#000000" style="" class=""/><path xmlns="http://www.w3.org/2000/svg" d="M133.01,358h18.283a6,6,0,0,0,0-12H133.01a6,6,0,1,0,0,12Z" fill="#4534aa" data-original="#000000" style="" class=""/><path xmlns="http://www.w3.org/2000/svg" d="M190.17,346H176.9a6,6,0,1,0,0,12H190.17a6,6,0,0,0,0-12Z" fill="#4534aa" data-original="#000000" style="" class=""/><path xmlns="http://www.w3.org/2000/svg" d="M209.981,352a6,6,0,0,0,6,6H378.99a6,6,0,0,0,0-12H215.981A6,6,0,0,0,209.981,352Z" fill="#4534aa" data-original="#000000" style="" class=""/><path xmlns="http://www.w3.org/2000/svg" d="M133.01,317h14.783a6,6,0,0,0,0-12H133.01a6,6,0,1,0,0,12Z" fill="#4534aa" data-original="#000000" style="" class=""/><path xmlns="http://www.w3.org/2000/svg" d="M173.743,317h45.981a6,6,0,0,0,0-12H173.743a6,6,0,0,0,0,12Z" fill="#4534aa" data-original="#000000" style="" class=""/><path xmlns="http://www.w3.org/2000/svg" d="M245.534,317H378.99a6,6,0,0,0,0-12H245.534a6,6,0,0,0,0,12Z" fill="#4534aa" data-original="#000000" style="" class=""/><path xmlns="http://www.w3.org/2000/svg" d="M175.185,70.4l.815-.759v38.74c0,2.449,2.462,4.159,6,4.159,2.986,0,6-1.429,6-4.159V58.284c0-2.617-2.885-4.237-5.516-4.237a4.161,4.161,0,0,0-2.711.976l-9.029,6.883a5.348,5.348,0,0,0-2.4,4.469c0,2.409,1.645,5.009,4.262,5.009A3.9,3.9,0,0,0,175.185,70.4Z" fill="#4534aa" data-original="#000000" style="" class=""/><path xmlns="http://www.w3.org/2000/svg" d="M227.961,54.2C215.687,54.2,209,60.824,209,72.85v21.5C209,106.377,215.687,113,227.961,113,240.285,113,247,106.377,247,94.352V72.85C247,60.824,240.285,54.2,227.961,54.2ZM235,94.352c0,5.217-2.332,7.862-7.038,7.862S221,99.643,221,94.352V72.85c0-5.291,2.241-7.863,6.962-7.863S235,67.632,235,72.85Z" fill="#4534aa" data-original="#000000" style="" class=""/><path xmlns="http://www.w3.org/2000/svg" d="M271.315,70.4l.685-.759v38.74c0,2.449,2.462,4.159,6,4.159,2.986,0,6-1.429,6-4.159V58.284c0-2.617-2.756-4.237-5.386-4.237a3.989,3.989,0,0,0-2.646.976l-9,6.883a5.336,5.336,0,0,0-2.386,4.469c0,2.409,1.588,5.009,4.205,5.009A3.758,3.758,0,0,0,271.315,70.4Z" fill="#4534aa" data-original="#000000" style="" class=""/><path xmlns="http://www.w3.org/2000/svg" d="M344,94.352V72.85c0-12.026-6.715-18.648-19.039-18.648C312.687,54.2,306,60.824,306,72.85v21.5C306,106.377,312.687,113,324.961,113,337.285,113,344,106.377,344,94.352Zm-26,0V72.85c0-5.291,2.241-7.863,6.962-7.863S332,67.632,332,72.85v21.5c0,5.217-2.332,7.862-7.038,7.862S318,99.643,318,94.352Z" fill="#4534aa" data-original="#000000" style="" class=""/><path xmlns="http://www.w3.org/2000/svg" d="M190.961,146.687c-12.274,0-18.961,6.623-18.961,18.648v21.5c0,12.026,6.687,18.649,18.961,18.649,12.324,0,19.039-6.623,19.039-18.649v-21.5C210,153.31,203.285,146.687,190.961,146.687ZM198,186.836c0,5.218-2.333,7.864-7.039,7.864S184,192.128,184,186.836v-21.5c0-5.291,2.241-7.863,6.961-7.863S198,160.118,198,165.335Z" fill="#4534aa" data-original="#000000" style="" class=""/><path xmlns="http://www.w3.org/2000/svg" d="M241.309,146.532a4.4,4.4,0,0,0-2.8.976l-9.072,6.883a5.368,5.368,0,0,0-2.425,4.47c0,2.409,1.606,5.008,4.224,5.008a4.426,4.426,0,0,0,2.78-.987l.983-.759v38.741c0,2.448,2.462,4.159,6,4.159,2.986,0,6-1.429,6-4.159V150.77C247,148.152,243.939,146.532,241.309,146.532Z" fill="#4534aa" data-original="#000000" style="" class=""/><path xmlns="http://www.w3.org/2000/svg" d="M286.961,146.687c-12.274,0-18.961,6.623-18.961,18.648v21.5c0,12.026,6.687,18.649,18.961,18.649,12.324,0,19.039-6.623,19.039-18.649v-21.5C306,153.31,299.285,146.687,286.961,146.687ZM294,186.836c0,5.218-2.333,7.864-7.039,7.864S280,192.128,280,186.836v-21.5c0-5.291,2.241-7.863,6.961-7.863S294,160.118,294,165.335Z" fill="#4534aa" data-original="#000000" style="" class=""/><path xmlns="http://www.w3.org/2000/svg" d="M330.143,162.882l.857-.759v38.741c0,2.448,2.462,4.159,6,4.159,2.986,0,6-1.429,6-4.159V150.77c0-2.618-2.931-4.238-5.561-4.238a4.22,4.22,0,0,0-2.734.976l-9.039,6.883a5.351,5.351,0,0,0-2.409,4.47c0,2.409,1.614,5.008,4.231,5.008A4.09,4.09,0,0,0,330.143,162.882Z" fill="#4534aa" data-original="#000000" style="" class=""/><path xmlns="http://www.w3.org/2000/svg" d="M133,53a6,6,0,0,0-6,6v2a6,6,0,0,0,12,0V59A6,6,0,0,0,133,53Z" fill="#4534aa" data-original="#000000" style="" class=""/><path xmlns="http://www.w3.org/2000/svg" d="M133,75a6,6,0,0,0-6,6v92a6,6,0,0,0,12,0V81A6,6,0,0,0,133,75Z" fill="#4534aa" data-original="#000000" style="" class=""/></g></svg>
