<svg id="visual" viewBox="0 0 900 600" width="900" height="600" xmlns="http://www.w3.org/2000/svg" xmlns:xlink="http://www.w3.org/1999/xlink" version="1.1"><rect x="0" y="0" width="900" height="600" fill="#FFFFFF"></rect><defs><linearGradient id="grad1_0" x1="33.3%" y1="100%" x2="100%" y2="0%"><stop offset="20%" stop-color="#4534aa" stop-opacity="1"></stop><stop offset="80%" stop-color="#4534aa" stop-opacity="1"></stop></linearGradient></defs><defs><linearGradient id="grad1_1" x1="33.3%" y1="100%" x2="100%" y2="0%"><stop offset="20%" stop-color="#4534aa" stop-opacity="1"></stop><stop offset="80%" stop-color="#ffffff" stop-opacity="1"></stop></linearGradient></defs><defs><linearGradient id="grad2_0" x1="0%" y1="100%" x2="66.7%" y2="0%"><stop offset="20%" stop-color="#4534aa" stop-opacity="1"></stop><stop offset="80%" stop-color="#4534aa" stop-opacity="1"></stop></linearGradient></defs><defs><linearGradient id="grad2_1" x1="0%" y1="100%" x2="66.7%" y2="0%"><stop offset="20%" stop-color="#ffffff" stop-opacity="1"></stop><stop offset="80%" stop-color="#4534aa" stop-opacity="1"></stop></linearGradient></defs><g transform="translate(900, 600)"><path d="M-135.2 0C-134.1 -14.3 -132.9 -28.6 -128.6 -41.8C-124.3 -55 -116.8 -67 -108.4 -78.8C-100 -90.5 -90.6 -102 -78.8 -108.4C-66.9 -114.8 -52.5 -116.2 -38.9 -119.8C-25.4 -123.5 -12.7 -129.3 0 -135.2L0 0Z" fill="#a895d5"></path><path d="M-67.6 0C-67 -7.2 -66.4 -14.3 -64.3 -20.9C-62.1 -27.5 -58.4 -33.5 -54.2 -39.4C-50 -45.3 -45.3 -51 -39.4 -54.2C-33.4 -57.4 -26.2 -58.1 -19.5 -59.9C-12.7 -61.7 -6.3 -64.7 0 -67.6L0 0Z" fill="#4534aa"></path></g><g transform="translate(0, 0)"><path d="M135.2 0C135.5 15.1 135.8 30.3 128.6 41.8C121.4 53.3 106.8 61.2 96.3 69.9C85.7 78.7 79.2 88.4 70.5 97.1C61.9 105.8 51.1 113.6 38.9 119.8C26.8 126 13.4 130.6 0 135.2L0 0Z" fill="#a895d5"></path><path d="M67.6 0C67.7 7.6 67.9 15.1 64.3 20.9C60.7 26.6 53.4 30.6 48.1 35C42.9 39.4 39.6 44.2 35.3 48.5C30.9 52.9 25.5 56.8 19.5 59.9C13.4 63 6.7 65.3 0 67.6L0 0Z" fill="#4534aa"></path></g></svg>