<?xml version="1.0" encoding="utf-8"?><svg xmlns="http://www.w3.org/2000/svg" xmlns:xlink="http://www.w3.org/1999/xlink" width="1536" height="945" preserveAspectRatio="xMidYMid" viewBox="0 0 1536 945" style="z-index:1;margin-right:-2px;display:block;background-repeat-y:initial;background-repeat-x:initial;background-color:rgb(255, 255, 255);animation-play-state:paused" ><g transform="translate(768,472.5) scale(1,1) translate(-768,-472.5)" style="transform:matrix(1, 0, 0, 1, 0, 0);animation-play-state:paused" ><g transform="translate(1271.8631152736798,-0.658959617909602) scale(100)" opacity="0.71" style="transform:matrix(100, 0, 0, 100, 1271.86, -0.65896);opacity:0.71;animation-play-state:paused" ><path d="M6.70464 0 C6.70464 1.58976 6.960426618686783 2.182907454079651 6.165546618686783 3.55968 S4.72909254592035 5.011508563229299 3.352320000000001 5.806388563229299 S1.5897600000000005 7.119360000000001 4.359350717988851e-16 7.119360000000001 S-1.9755474540796496 6.6012685632293 -3.352319999999999 5.8063885632293 S-5.37066661868678 4.936452545920352 -6.165546618686781 3.559680000000003 S-6.70464 1.589760000000001 -6.70464 8.21081591543531e-16 S-6.960426618686784 -2.1829074540796496 -6.1655466186867836 -3.559679999999999 S-4.729092545920352 -5.011508563229297 -3.3523200000000033 -5.806388563229298 S-1.5897600000000014 -7.119360000000001 -1.3078052153966552e-15 -7.119360000000001 S1.9755474540796458 -6.601268563229301 3.3523199999999957 -5.8063885632293015 S5.370666618686779 -4.9364525459203525 6.16554661868678 -3.5596800000000037 S6.70464 -1.5897600000000016 6.70464 -1.642163183087062e-15" fill="#4534aa" stroke-width="0" transform="matrix(1,0,0,1,0,0)" style="transform:matrix(1, 0, 0, 1, 0, 0);animation-play-state:paused" ></path></g>
<g transform="translate(1372.6357383284158,-95.29075154149155) scale(100)" opacity="0.71" style="transform:matrix(100, 0, 0, 100, 1372.64, -95.2907);opacity:0.71;animation-play-state:paused" ><path d="M8.045568000000001 0 C8.045568000000001 1.907712 8.352511942424139 2.619488944895581 7.398655942424139 4.271616 S5.67491105510442 6.0138102758751595 4.0227840000000015 6.9676662758751595 S1.9077120000000005 8.543232000000001 5.231220861586622e-16 8.543232000000001 S-2.37065694489558 7.9215222758751604 -4.022783999999999 6.96766627587516 S-6.444799942424137 5.923743055104422 -7.398655942424138 4.271616000000003 S-8.045568000000001 1.907712000000001 -8.045568000000001 9.852979098522373e-16 S-8.35251194242414 -2.6194889448955787 -7.39865594242414 -4.271615999999998 S-5.674911055104423 -6.013810275875157 -4.022784000000004 -6.967666275875158 S-1.9077120000000016 -8.543232000000001 -1.5693662584759862e-15 -8.543232000000001 S2.3706569448955754 -7.921522275875162 4.022783999999995 -6.967666275875163 S6.444799942424136 -5.923743055104422 7.398655942424137 -4.271616000000004 S8.045568000000001 -1.907712000000002 8.045568000000001 -1.9705958197044746e-15" fill="#4534aa" stroke-width="0" transform="matrix(1,0,0,1,0,0)" style="transform:matrix(1, 0, 0, 1, 0, 0);animation-play-state:paused" ></path></g>
<g transform="translate(1614.4900336597816,-322.40705215808805) scale(100)" opacity="0.71" style="transform:matrix(100, 0, 0, 100, 1614.49, -322.407);opacity:0.71;animation-play-state:paused" ><path d="M11.263795199999999 0 C11.263795199999999 2.6707967999999997 11.693516719393791 3.6672845228538127 10.358118319393792 5.980262399999999 S7.944875477146187 8.41933438622522 5.6318976 9.75473278622522 S2.6707968000000006 11.9605248 7.323709206221268e-16 11.9605248 S-3.3189197228538103 11.09013118622522 -5.631897599999997 9.75473278622522 S-9.02271991939379 8.29324027714619 -10.35811831939379 5.9802624000000035 S-11.263795199999999 2.670796800000001 -11.263795199999999 1.379417073793132e-15 S-11.693516719393793 -3.6672845228538096 -10.358118319393794 -5.980262399999996 S-7.944875477146191 -8.419334386225218 -5.631897600000005 -9.754732786225219 S-2.670796800000002 -11.9605248 -2.1971127618663804e-15 -11.9605248 S3.318919722853805 -11.090131186225225 5.631897599999992 -9.754732786225226 S9.022719919393788 -8.293240277146191 10.358118319393789 -5.980262400000005 S11.263795199999999 -2.6707968000000024 11.263795199999999 -2.758834147586264e-15" fill="#4534aa" stroke-width="0" transform="matrix(1,0,0,1,0,0)" style="transform:matrix(1, 0, 0, 1, 0, 0);animation-play-state:paused" ></path></g></g></svg>