<?xml version="1.0" encoding="utf-8"?><svg xmlns="http://www.w3.org/2000/svg" xmlns:xlink="http://www.w3.org/1999/xlink" width="1535" height="762" preserveAspectRatio="xMidYMid" viewBox="0 0 1535 762" style="z-index:1;margin-right:-2px;display:block;background-repeat-y:initial;background-repeat-x:initial;background-color:rgb(255, 255, 255);animation-play-state:paused" ><g transform="translate(767.5,381) scale(1,1) translate(-767.5,-381)" style="transform:matrix(1, 0, 0, 1, 0, 0);animation-play-state:paused" ><g transform="translate(1211.8490385290083,79.02070524894282) scale(100)" opacity="0.9" style="transform:matrix(100, 0, 0, 100, 1211.85, 79.0207);opacity:0.9;animation-play-state:paused" ><path d="M5.2113249999999995 0 C5.2113249999999995 1.2356749999999999 5.410140626286854 1.6967115591786632 4.792303126286853 2.7668374999999994 S3.675788440821336 3.895302337376939 2.6056625 4.513139837376939 S1.2356750000000003 5.533675 3.3883986881358645e-16 5.533675 S-1.5355365591786623 5.130977337376939 -2.6056624999999984 4.51313983737694 S-4.174465626286852 3.8369634408213376 -4.7923031262868525 2.7668375000000016 S-5.2113249999999995 1.2356750000000005 -5.2113249999999995 6.38203248056658e-16 S-5.410140626286854 -1.6967115591786621 -4.792303126286854 -2.7668374999999985 S-3.675788440821338 -3.895302337376938 -2.605662500000002 -4.513139837376938 S-1.235675000000001 -5.533675 -1.0165196064407593e-15 -5.533675 S1.5355365591786596 -5.130977337376941 2.605662499999996 -4.513139837376942 S4.174465626286851 -3.8369634408213384 4.792303126286852 -2.7668375000000025 S5.2113249999999995 -1.2356750000000012 5.2113249999999995 -1.276406496113316e-15" fill="#4534aa" stroke-width="0" transform="matrix(1,0,0,1,0,0)" style="transform:matrix(1, 0, 0, 1, 0, 0);animation-play-state:paused" ></path></g>
<g transform="translate(1300.71884623481,18.624846298731427) scale(100)" opacity="0.9" style="transform:matrix(100, 0, 0, 100, 1300.72, 18.6248);opacity:0.9;animation-play-state:paused" ><path d="M6.253589999999999 0 C6.253589999999999 1.4828099999999997 6.492168751544224 2.0360538710143956 5.750763751544224 3.320204999999999 S4.410946128985604 4.6743628048523265 3.1267950000000004 5.415767804852327 S1.4828100000000002 6.640409999999999 4.0660784257630376e-16 6.640409999999999 S-1.8426438710143949 6.157172804852327 -3.126794999999998 5.415767804852328 S-5.009358751544222 4.6043561289856045 -5.7507637515442225 3.320205000000002 S-6.253589999999999 1.4828100000000004 -6.253589999999999 7.658438976679895e-16 S-6.492168751544225 -2.0360538710143943 -5.750763751544225 -3.320204999999998 S-4.410946128985605 -4.674362804852326 -3.126795000000002 -5.415767804852326 S-1.4828100000000008 -6.640409999999999 -1.2198235277289112e-15 -6.640409999999999 S1.8426438710143918 -6.157172804852328 3.1267949999999956 -5.4157678048523294 S5.009358751544221 -4.604356128985605 5.750763751544222 -3.3202050000000027 S6.253589999999999 -1.4828100000000013 6.253589999999999 -1.531687795335979e-15" fill="#4534aa" stroke-width="0" transform="matrix(1,0,0,1,0,0)" style="transform:matrix(1, 0, 0, 1, 0, 0);animation-play-state:paused" ></path></g></g></svg>