<?xml version="1.0" encoding="utf-8"?><svg xmlns="http://www.w3.org/2000/svg" xmlns:xlink="http://www.w3.org/1999/xlink" width="1536" height="732" preserveAspectRatio="xMidYMid" viewBox="0 0 1536 732" style="z-index:1;margin-right:-2px;display:block;background-repeat-y:initial;background-repeat-x:initial;background-color:rgb(255, 255, 255);animation-play-state:paused" ><g transform="translate(768,366) scale(1,1) translate(-768,-366)" style="transform:matrix(1, 0, 0, 1, 0, 0);animation-play-state:paused" ><g transform="translate(1520.7223116343332,-17.531174179969128) scale(100)" opacity="0.71" style="transform:matrix(100, 0, 0, 100, 1520.72, -17.5312);opacity:0.71;animation-play-state:paused" ><path d="M8.194560000000001 0 C8.194560000000001 1.9430399999999999 8.507188089506066 2.6679979994306833 7.535668089506066 4.350719999999999 S5.780002000569317 6.12517713283581 4.097280000000001 7.09669713283581 S1.9430400000000003 8.70144 5.328095321986372e-16 8.70144 S-2.414557999430683 8.06821713283581 -4.097279999999999 7.096697132835811 S-6.564148089506063 6.033442000569318 -7.535668089506064 4.350720000000003 S-8.194560000000001 1.943040000000001 -8.194560000000001 1.0035441674420936e-15 S-8.507188089506066 -2.667997999430681 -7.535668089506067 -4.350719999999997 S-5.780002000569319 -6.125177132835808 -4.097280000000004 -7.096697132835809 S-1.9430400000000014 -8.70144 -1.5984285965959116e-15 -8.70144 S2.414557999430679 -8.068217132835812 4.097279999999995 -7.096697132835813 S6.564148089506062 -6.033442000569319 7.535668089506063 -4.3507200000000035 S8.194560000000001 -1.9430400000000019 8.194560000000001 -2.0070883348841873e-15" fill="#4534aa" stroke-width="0" transform="matrix(1,0,0,1,0,0)" style="transform:matrix(1, 0, 0, 1, 0, 0);animation-play-state:paused" ></path></g>
<g transform="translate(1671.2667739611998,-94.2374090159629) scale(100)" opacity="0.71" style="transform:matrix(100, 0, 0, 100, 1671.27, -94.2374);opacity:0.71;animation-play-state:paused" ><path d="M9.833471999999999 0 C9.833471999999999 2.3316479999999995 10.208625707407277 3.20159759931682 9.042801707407278 5.220863999999999 S6.936002400683178 7.35021255940297 4.916736 8.51603655940297 S2.331648 10.441728 6.393714386383647e-16 10.441728 S-2.897469599316819 9.68186055940297 -4.9167359999999976 8.516036559402972 S-7.876977707407276 7.2401304006831815 -9.042801707407277 5.220864000000003 S-9.833471999999999 2.331648000000001 -9.833471999999999 1.204253000930512e-15 S-10.208625707407279 -3.2015975993168184 -9.04280170740728 -5.220863999999997 S-6.936002400683182 -7.3502125594029675 -4.916736000000004 -8.516036559402968 S-2.3316480000000013 -10.441728 -1.918114315915094e-15 -10.441728 S2.897469599316814 -9.681860559402972 4.916735999999993 -8.516036559402973 S7.876977707407274 -7.2401304006831815 9.042801707407275 -5.220864000000004 S9.833471999999999 -2.3316480000000017 9.833471999999999 -2.408506001861024e-15" fill="#4534aa" stroke-width="0" transform="matrix(1,0,0,1,0,0)" style="transform:matrix(1, 0, 0, 1, 0, 0);animation-play-state:paused" ></path></g>
<g transform="translate(2032.5734835456797,-278.332372622348) scale(100)" opacity="0.71" style="transform:matrix(100, 0, 0, 100, 2032.57, -278.332);opacity:0.71;animation-play-state:paused" ><path d="M13.766860799999998 0 C13.766860799999998 3.2643071999999997 14.29207599037019 4.482236639043549 12.659922390370191 7.309209599999999 S9.710403360956452 10.290297583164158 6.883430400000001 11.922451183164158 S3.2643072000000006 14.6184192 8.951200140937107e-16 14.6184192 S-4.056457439043546 13.554604783164159 -6.883430399999996 11.92245118316416 S-11.027768790370187 10.136182560956454 -12.659922390370188 7.309209600000004 S-13.766860799999998 3.2643072000000015 -13.766860799999998 1.6859542013027168e-15 S-14.292075990370192 -4.4822366390435455 -12.659922390370193 -7.3092095999999955 S-9.710403360956455 -10.290297583164154 -6.883430400000005 -11.922451183164156 S-3.2643072000000024 -14.6184192 -2.6853600422811316e-15 -14.6184192 S4.056457439043539 -13.55460478316416 6.88343039999999 -11.922451183164164 S11.027768790370185 -10.136182560956456 12.659922390370186 -7.309209600000006 S13.766860799999998 -3.2643072000000033 13.766860799999998 -3.3719084026054335e-15" fill="#4534aa" stroke-width="0" transform="matrix(1,0,0,1,0,0)" style="transform:matrix(1, 0, 0, 1, 0, 0);animation-play-state:paused" ></path></g></g></svg>