<?xml version="1.0" encoding="utf-8"?><svg xmlns="http://www.w3.org/2000/svg" xmlns:xlink="http://www.w3.org/1999/xlink" width="1536" height="868" preserveAspectRatio="xMidYMid" viewBox="0 0 1536 868" style="z-index:1;margin-right:-2px;display:block;background-repeat-y:initial;background-repeat-x:initial;background-color:rgb(255, 255, 255);animation-play-state:paused" ><g transform="translate(768,434) scale(1,1) translate(-768,-434)" style="transform:matrix(1, 0, 0, 1, 0, 0);animation-play-state:paused" ><g transform="translate(1513.5900620159514,-107.70288851274324) scale(100)" opacity="0.71" style="transform:matrix(100, 0, 0, 100, 1513.59, -107.703);opacity:0.71;animation-play-state:paused" ><path d="M8.93952 0 C8.93952 2.11968 8.211037080223178 5.213356876332176 6.712196978277678 6.712196978277677 S2.1196800000000002 8.93952 5.473877276956873e-16 8.93952 S-5.213356876332176 8.211037080223178 -6.712196978277677 6.712196978277678 S-8.93952 2.1196800000000007 -8.93952 1.0947754553913746e-15 S-8.21103708022318 -5.213356876332176 -6.712196978277679 -6.712196978277677 S-2.1196800000000016 -8.93952 -1.6421631830870619e-15 -8.93952 S5.213356876332175 -8.211037080223178 6.712196978277676 -6.712196978277679 S8.93952 -2.119680000000002 8.93952 -2.1895509107827493e-15" fill="#4534aa" stroke-width="0" transform="matrix(1,0,0,1,0,0)" style="transform:matrix(1, 0, 0, 1, 0, 0);animation-play-state:paused" ></path></g>
<g transform="translate(1662.7080744191417,-216.0434662152918) scale(100)" opacity="0.71" style="transform:matrix(100, 0, 0, 100, 1662.71, -216.043);opacity:0.71;animation-play-state:paused" ><path d="M10.727424 0 C10.727424 2.5436159999999997 9.853244496267815 6.256028251598611 8.054636373933214 8.054636373933212 S2.543616 10.727424 6.568652732348247e-16 10.727424 S-6.256028251598611 9.853244496267815 -8.054636373933212 8.054636373933214 S-10.727424 2.543616000000001 -10.727424 1.3137305464696495e-15 S-9.853244496267816 -6.256028251598611 -8.054636373933215 -8.054636373933212 S-2.5436160000000014 -10.727424 -1.9705958197044742e-15 -10.727424 S6.256028251598611 -9.853244496267816 8.054636373933212 -8.054636373933215 S10.727424 -2.5436160000000023 10.727424 -2.627461092939299e-15" fill="#594bd4" stroke-width="0" transform="matrix(1,0,0,1,0,0)" style="transform:matrix(1, 0, 0, 1, 0, 0);animation-play-state:paused" ></path></g>
<g transform="translate(2020.5913041867984,-476.0608527014085) scale(100)" opacity="0.71" style="transform:matrix(100, 0, 0, 100, 2020.59, -476.061);opacity:0.71;animation-play-state:paused" ><path d="M15.018393599999998 0 C15.018393599999998 3.561062399999999 13.794542294774939 8.758439552238055 11.276490923506499 11.276490923506497 S3.5610624 15.018393599999998 9.196113825287547e-16 15.018393599999998 S-8.758439552238055 13.794542294774939 -11.276490923506497 11.276490923506499 S-15.018393599999998 3.561062400000001 -15.018393599999998 1.8392227650575094e-15 S-13.794542294774942 -8.758439552238055 -11.2764909235065 -11.276490923506497 S-3.5610624000000017 -15.018393599999998 -2.7588341475862635e-15 -15.018393599999998 S8.758439552238054 -13.794542294774942 11.276490923506495 -11.2764909235065 S15.018393599999998 -3.5610624000000026 15.018393599999998 -3.678445530115019e-15" fill="#6c63ff" stroke-width="0" transform="matrix(1,0,0,1,0,0)" style="transform:matrix(1, 0, 0, 1, 0, 0);animation-play-state:paused" ></path></g></g></svg>