<?xml version="1.0" encoding="utf-8"?><svg xmlns="http://www.w3.org/2000/svg" xmlns:xlink="http://www.w3.org/1999/xlink" width="1683" height="887" preserveAspectRatio="xMidYMid" viewBox="0 0 1683 887" style="z-index:1;margin-right:-2px;display:block;background-repeat-y:initial;background-repeat-x:initial;background-color:rgb(255, 255, 255);animation-play-state:paused" ><g transform="translate(841.5,443.5) scale(1,1) translate(-841.5,-443.5)" style="transform:matrix(1, 0, 0, 1, 0, 0);animation-play-state:paused" ><g transform="translate(1373.4323543313149,30.89097148081629) scale(100)" opacity="0.71" style="transform:matrix(100, 0, 0, 100, 1373.43, 30.891);opacity:0.71;animation-play-state:paused" ><path d="M6.53004 0 C6.53004 1.54836 6.779165508825146 2.1260609057963267 6.004985508825147 3.46698 S4.6059390942036735 4.881000527728535 3.2650200000000007 5.655180527728535 S1.5483600000000004 6.933960000000001 4.245825959707891e-16 6.933960000000001 S-1.924100905796325 6.4293605277285355 -3.2650199999999985 5.655180527728536 S-5.230805508825146 4.807899094203676 -6.004985508825146 3.4669800000000026 S-6.53004 1.5483600000000008 -6.53004 7.996992584304181e-16 S-6.779165508825147 -2.126060905796325 -6.004985508825148 -3.4669799999999986 S-4.605939094203676 -4.881000527728534 -3.265020000000003 -5.655180527728534 S-1.5483600000000013 -6.933960000000001 -1.2737477879123672e-15 -6.933960000000001 S1.9241009057963214 -6.429360527728537 3.2650199999999954 -5.655180527728538 S5.230805508825145 -4.807899094203677 6.004985508825145 -3.4669800000000035 S6.53004 -1.5483600000000015 6.53004 -1.5993985168608363e-15" fill="#00ffff" stroke-width="0" transform="matrix(1,0,0,1,0,0)" style="transform:matrix(1, 0, 0, 1, 0, 0);animation-play-state:paused" ></path></g>
<g transform="translate(1479.8188251975778,-51.63083422302043) scale(100)" opacity="0.71" style="transform:matrix(100, 0, 0, 100, 1479.82, -51.6308);opacity:0.71;animation-play-state:paused" ><path d="M7.836048 0 C7.836048 1.858032 8.134998610590177 2.5512730869555913 7.205982610590176 4.160375999999999 S5.527126913044409 5.857200633274243 3.918024000000001 6.786216633274242 S1.8580320000000003 8.320752 5.094991151649469e-16 8.320752 S-2.30892108695559 7.715232633274243 -3.918023999999998 6.786216633274243 S-6.276966610590174 5.769478913044411 -7.2059826105901745 4.160376000000003 S-7.836048 1.8580320000000008 -7.836048 9.596391101165019e-16 S-8.134998610590177 -2.5512730869555895 -7.205982610590177 -4.160375999999998 S-5.527126913044411 -5.857200633274241 -3.9180240000000035 -6.7862166332742415 S-1.8580320000000015 -8.320752 -1.5284973454948406e-15 -8.320752 S2.3089210869555856 -7.715232633274245 3.9180239999999946 -6.786216633274246 S6.276966610590173 -5.769478913044411 7.205982610590174 -4.160376000000004 S7.836047999999999 -1.858032000000002 7.836048 -1.9192782202330037e-15" fill="#00c6ff" stroke-width="0" transform="matrix(1,0,0,1,0,0)" style="transform:matrix(1, 0, 0, 1, 0, 0);animation-play-state:paused" ></path></g>
<g transform="translate(1735.1463552766088,-249.68316791222855) scale(100)" opacity="0.71" style="transform:matrix(100, 0, 0, 100, 1735.15, -249.683);opacity:0.71;animation-play-state:paused" ><path d="M10.970467199999998 0 C10.970467199999998 2.6012447999999995 11.388998054826246 3.5717823217378277 10.088375654826246 5.824526399999999 S7.737977678262171 8.200080886583939 5.4852336 9.500703286583938 S2.6012448000000004 11.6490528 7.132987612309256e-16 11.6490528 S-3.232489521737825 10.801325686583937 -5.485233599999996 9.500703286583938 S-8.787753254826244 8.077270478262173 -10.088375654826244 5.824526400000003 S-10.970467199999998 2.601244800000001 -10.970467199999998 1.3434947541631024e-15 S-11.388998054826246 -3.571782321737825 -10.088375654826248 -5.824526399999996 S-7.737977678262174 -8.200080886583937 -5.4852336000000035 -9.500703286583937 S-2.6012448000000017 -11.6490528 -2.139896283692777e-15 -11.6490528 S3.2324895217378202 -10.80132568658394 5.485233599999992 -9.500703286583942 S8.787753254826242 -8.077270478262175 10.088375654826242 -5.824526400000005 S10.970467199999998 -2.601244800000002 10.970467199999998 -2.6869895083262048e-15" fill="#ff00ff" stroke-width="0" transform="matrix(1,0,0,1,0,0)" style="transform:matrix(1, 0, 0, 1, 0, 0);animation-play-state:paused" ></path></g></g></svg>