<?xml version="1.0" encoding="utf-8"?><svg xmlns="http://www.w3.org/2000/svg" xmlns:xlink="http://www.w3.org/1999/xlink" width="1536" height="513" preserveAspectRatio="xMidYMid" viewBox="0 0 1536 513" style="z-index:1;margin-right:-2px;display:block;background-repeat-y:initial;background-repeat-x:initial;background-color:rgb(255, 255, 255);animation-play-state:paused" ><g transform="translate(768,256.5) scale(-1,-1) translate(-768,-256.5)" style="transform:matrix(-1, 0, 0, -1, 1536, 513);animation-play-state:paused" ><linearGradient id="lg-0.4987243819154177" x1="0" x2="1" y1="0" y2="0" style="animation-play-state:paused" ><stop stop-color="#4534aa" offset="0" style="animation-play-state:paused" ></stop>

  
<stop stop-color="#4534aa" offset="1" style="animation-play-state:paused" ></stop></linearGradient>
<path d="M 0 0 L 0 343.695 Q 192 410.712 384 381.259 T 768 328.124 T 1152 370.905 T 1536 324.202 L 1536 0 Z" fill="url(#lg-0.4987243819154177)" opacity="0.7" style="opacity:0.7;animation-play-state:paused" ></path>
<path d="M 0 0 L 0 338.14 Q 192 382.021 384 351.053 T 768 349.273 T 1152 354.067 T 1536 354.269 L 1536 0 Z" fill="url(#lg-0.4987243819154177)" opacity="0.7" style="opacity:0.7;animation-play-state:paused" ></path>
<path d="M 0 0 L 0 345.245 Q 192 365.213 384 348.097 T 768 375.779 T 1152 353.849 T 1536 343.462 L 1536 0 Z" fill="url(#lg-0.4987243819154177)" opacity="0.7" style="opacity:0.7;animation-play-state:paused" ></path>
<path d="M 0 0 L 0 356.751 Q 192 376.272 384 354.258 T 768 330.118 T 1152 365.841 T 1536 373.017 L 1536 0 Z" fill="url(#lg-0.4987243819154177)" opacity="0.7" style="opacity:0.7;animation-play-state:paused" ></path>
<path d="M 0 0 L 0 350.57 Q 192 389.93 384 360.803 T 768 350.267 T 1152 326.204 T 1536 346.47 L 1536 0 Z" fill="url(#lg-0.4987243819154177)" opacity="0.7" style="opacity:0.7;animation-play-state:paused" ></path></g></svg>