<?xml version="1.0"?>
<svg xmlns="http://www.w3.org/2000/svg" xmlns:xlink="http://www.w3.org/1999/xlink" xmlns:svgjs="http://svgjs.com/svgjs" version="1.1" width="512" height="512" x="0" y="0" viewBox="0 0 512 512" style="enable-background:new 0 0 512 512" xml:space="preserve"><g transform="matrix(0.5800000000000001,0,0,0.5800000000000001,107.52000640869136,107.30999999999989)"><path xmlns="http://www.w3.org/2000/svg" d="M465.749,62H46.251A36.251,36.251,0,0,0,10,98.251v314.5A36.251,36.251,0,0,0,46.251,449h419.5A36.251,36.251,0,0,0,502,412.749V98.251A36.251,36.251,0,0,0,465.749,62ZM490,132H109a6,6,0,0,0,0,12H490V413.262C490,426.634,479.121,438,465.749,438H46.271C32.9,438,22,426.634,22,413.262V144H67a6,6,0,0,0,0-12H22V98.738C22,85.366,32.9,74,46.271,74H465.749C479.121,74,490,85.366,490,98.738Z" fill="#4534aa" data-original="#000000" style=""/><path xmlns="http://www.w3.org/2000/svg" d="M47.113,85.733A16.492,16.492,0,1,0,63.6,102.225,16.51,16.51,0,0,0,47.113,85.733Zm0,20.984a4.492,4.492,0,1,1,4.491-4.492A4.5,4.5,0,0,1,47.113,106.717Z" fill="#4534aa" data-original="#000000" style=""/><path xmlns="http://www.w3.org/2000/svg" d="M100.41,102.225a16.492,16.492,0,1,0-16.492,16.492A16.51,16.51,0,0,0,100.41,102.225Zm-20.984,0a4.492,4.492,0,1,1,4.492,4.492A4.5,4.5,0,0,1,79.426,102.225Z" fill="#4534aa" data-original="#000000" style=""/><path xmlns="http://www.w3.org/2000/svg" d="M120.723,85.733a16.492,16.492,0,1,0,16.492,16.492A16.51,16.51,0,0,0,120.723,85.733Zm0,20.984a4.492,4.492,0,1,1,4.492-4.492A4.5,4.5,0,0,1,120.723,106.717Z" fill="#4534aa" data-original="#000000" style=""/><path xmlns="http://www.w3.org/2000/svg" d="M41,173h2a6,6,0,0,0,0-12H41a6,6,0,0,0,0,12Z" fill="#4534aa" data-original="#000000" style=""/><path xmlns="http://www.w3.org/2000/svg" d="M57,167a6,6,0,0,0,6,6h92a6,6,0,0,0,0-12H63A6,6,0,0,0,57,167Z" fill="#4534aa" data-original="#000000" style=""/><path xmlns="http://www.w3.org/2000/svg" d="M71.352,269.51a6,6,0,0,0-8.485,0L51.377,281a6,6,0,0,0,0,8.485l11.49,11.49a6,6,0,0,0,8.485-8.485l-7.247-7.247L71.352,278A6,6,0,0,0,71.352,269.51Z" fill="#4534aa" data-original="#000000" style=""/><path xmlns="http://www.w3.org/2000/svg" d="M62.362,251.134a34.109,34.109,0,1,0,34.109,34.109A34.147,34.147,0,0,0,62.362,251.134Zm0,56.217a22.109,22.109,0,1,1,22.109-22.108A22.134,22.134,0,0,1,62.362,307.351Z" fill="#4534aa" data-original="#000000" style=""/><path xmlns="http://www.w3.org/2000/svg" d="M440.667,300.975a6,6,0,0,0,8.486,0l11.49-11.49a6,6,0,0,0,0-8.485l-11.49-11.49A6,6,0,1,0,440.667,278l7.248,7.248-7.248,7.247A6,6,0,0,0,440.667,300.975Z" fill="#4534aa" data-original="#000000" style=""/><path xmlns="http://www.w3.org/2000/svg" d="M449.658,319.351a34.109,34.109,0,1,0-34.109-34.108A34.147,34.147,0,0,0,449.658,319.351Zm0-56.217a22.109,22.109,0,1,1-22.109,22.109A22.134,22.134,0,0,1,449.658,263.134Z" fill="#4534aa" data-original="#000000" style=""/><path xmlns="http://www.w3.org/2000/svg" d="M134,202.283V215H113.159A6.068,6.068,0,0,0,107,220.917V349.568A6.521,6.521,0,0,0,113.159,356H134v12.2a6.028,6.028,0,0,0,6.226,5.8H371.75a6.049,6.049,0,0,0,6.25-5.8V356h20.861A6.5,6.5,0,0,0,405,349.568V220.917A6.05,6.05,0,0,0,398.861,215H378V202.283A6.465,6.465,0,0,0,371.75,196H140.226A6.444,6.444,0,0,0,134,202.283ZM134,344H119V227h15ZM378,227h15V344H378ZM153.843,362l44.243-46.839L242.33,362Zm104.994,0-9.256-9.7L302,269.066,361.1,362ZM146,208H366V347.154l-58.828-92.373A6.216,6.216,0,0,0,301.983,252h-.011a5.992,5.992,0,0,0-5.065,2.8l-55.835,88.6-38.624-40.89a6,6,0,0,0-4.362-1.88,6.257,6.257,0,0,0-4.475,1.88L146,352.79Z" fill="#4534aa" data-original="#000000" style=""/><path xmlns="http://www.w3.org/2000/svg" d="M234.737,289.114a28.346,28.346,0,1,0-28.345-28.345A28.378,28.378,0,0,0,234.737,289.114Zm0-44.691a16.346,16.346,0,1,1-16.345,16.346A16.364,16.364,0,0,1,234.737,244.423Z" fill="#4534aa" data-original="#000000" style=""/></g></svg>
