<?xml version="1.0" encoding="utf-8"?><svg xmlns="http://www.w3.org/2000/svg" xmlns:xlink="http://www.w3.org/1999/xlink" width="1536" height="655" preserveAspectRatio="xMidYMid" viewBox="0 0 1536 655" style="z-index:1;margin-right:-2px;display:block;background-repeat-y:initial;background-repeat-x:initial;background-color:rgb(255, 255, 255);animation-play-state:paused" ><g transform="translate(768,327.5) scale(1,1) translate(-768,-327.5)" style="transform:matrix(1, 0, 0, 1, 0, 0);animation-play-state:paused" ><linearGradient id="lg-0.04944295730351156" x1="0" x2="1" y1="0" y2="0" style="animation-play-state:paused" ><stop stop-color="#9d50bb" offset="0" style="animation-play-state:paused" ></stop>

  
<stop stop-color="#6e48aa" offset="1" style="animation-play-state:paused" ></stop></linearGradient>
<path d="M 0 0 M 0 489.29 Q 192 501.751 384 496.502 T 768 468.818 T 1152 481.733 T 1536 529.372 L 1536 105.991 Q 1344 117.804 1152 111.441 T 768 144.742 T 384 171.459 T 0 206.046 Z" fill="url(#lg-0.04944295730351156)" opacity="0.71" style="opacity:0.71;animation-play-state:paused" ></path>
<path d="M 0 0 M 0 487.97 Q 192 469.406 384 462.23 T 768 487.46 T 1152 513.813 T 1536 494.608 L 1536 107.991 Q 1344 143.656 1152 138.078 T 768 171.455 T 384 160 T 0 202.418 Z" fill="url(#lg-0.04944295730351156)" opacity="0.71" style="opacity:0.71;animation-play-state:paused" ></path>
<path d="M 0 0 M 0 474.585 Q 192 497.233 384 493.904 T 768 475.517 T 1152 527.7 T 1536 553.209 L 1536 151.31 Q 1344 122.084 1152 113.757 T 768 139.109 T 384 169.615 T 0 191.528 Z" fill="url(#lg-0.04944295730351156)" opacity="0.71" style="opacity:0.71;animation-play-state:paused" ></path>
<path d="M 0 0 M 0 488.388 Q 192 464.345 384 457.624 T 768 494.317 T 1152 518.809 T 1536 522.637 L 1536 126.278 Q 1344 171.432 1152 169.138 T 768 155.761 T 384 153.923 T 0 185.481 Z" fill="url(#lg-0.04944295730351156)" opacity="0.71" style="opacity:0.71;animation-play-state:paused" ></path></g></svg>