<?xml version="1.0" encoding="UTF-8"?>
<svg xmlns="http://www.w3.org/2000/svg" xmlns:xlink="http://www.w3.org/1999/xlink" viewBox="0 0 128 128" width="128px" height="128px">
<g id="surface6480444">
<path style=" stroke:none;fill-rule:nonzero;fill:rgb(11.372549%,65.098041%,34.117648%);fill-opacity:1;" d="M 63.992188 12 C 56.898438 12 22.140625 31.9375 18.632812 38.015625 C 15.121094 44.101562 15.121094 83.933594 18.632812 89.992188 C 22.15625 96.066406 56.917969 116 63.992188 116 C 71.046875 116 105.808594 96.078125 109.34375 90.007812 C 112.890625 83.917969 112.890625 44.054688 109.34375 37.992188 L 109.34375 37.984375 C 105.78125 31.917969 71.023438 12 63.992188 12 Z M 63.984375 20.046875 C 70.773438 21.457031 97.671875 36.867188 102.382812 42.039062 C 104.542969 48.601562 104.539062 79.378906 102.382812 85.953125 C 97.703125 91.117188 70.78125 106.546875 63.984375 107.953125 C 57.191406 106.554688 30.289062 91.132812 25.601562 85.960938 C 23.460938 79.367188 23.460938 48.625 25.601562 42.039062 C 30.277344 36.867188 57.1875 21.445312 63.984375 20.046875 Z M 52 36 L 44 44 L 48 44 L 48 84 L 56 84 L 56 68 L 72 68 L 72 84 L 68 84 L 76 92 L 84 84 L 80 84 L 80 48 L 72 48 L 72 60 L 56 60 L 56 44 L 60 44 Z M 52 36 "/>
</g>
</svg>
