<?xml version="1.0" encoding="utf-8"?><svg xmlns="http://www.w3.org/2000/svg" xmlns:xlink="http://www.w3.org/1999/xlink" width="1535" height="650" preserveAspectRatio="xMidYMid" viewBox="0 0 1535 650" style="z-index:1;margin-right:-2px;display:block;background-repeat-y:initial;background-repeat-x:initial;background-color:rgb(255, 255, 255);animation-play-state:paused" ><g transform="translate(767.5,325) scale(1,1) translate(-767.5,-325)" style="transform:matrix(1, 0, 0, 1, 0, 0);animation-play-state:paused" ><linearGradient id="lg-0.3349909092268424" x1="0" x2="1" y1="0" y2="0" style="animation-play-state:paused" ><stop stop-color="#4534aa" offset="0" style="animation-play-state:paused" ></stop>

  
<stop stop-color="#4534aa" offset="1" style="animation-play-state:paused" ></stop></linearGradient>
<path d="M 0 0 L 0 598.985 Q 153.5 631.835 307 598.435 T 614 611.865 T 921 602.594 T 1228 593.58 T 1535 582.006 L 1535 0 Z" fill="url(#lg-0.3349909092268424)" opacity="0.45999999999999996" style="opacity:0.46;animation-play-state:paused" ></path>
<path d="M 0 0 L 0 606.062 Q 153.5 638.302 307 608.681 T 614 583.297 T 921 592.067 T 1228 576.512 T 1535 584.564 L 1535 0 Z" fill="url(#lg-0.3349909092268424)" opacity="0.45999999999999996" style="opacity:0.46;animation-play-state:paused" ></path>
<path d="M 0 0 L 0 607.256 Q 153.5 640.861 307 608.686 T 614 596.893 T 921 605.334 T 1228 586.367 T 1535 589.055 L 1535 0 Z" fill="url(#lg-0.3349909092268424)" opacity="0.45999999999999996" style="opacity:0.46;animation-play-state:paused" ></path>
<path d="M 0 0 L 0 613.597 Q 153.5 633.871 307 608.541 T 614 588.763 T 921 587.904 T 1228 592.357 T 1535 591.057 L 1535 0 Z" fill="url(#lg-0.3349909092268424)" opacity="0.45999999999999996" style="opacity:0.46;animation-play-state:paused" ></path>
<path d="M 0 0 L 0 607.889 Q 153.5 632.553 307 600.485 T 614 589.835 T 921 584.933 T 1228 580.465 T 1535 586.773 L 1535 0 Z" fill="url(#lg-0.3349909092268424)" opacity="0.45999999999999996" style="opacity:0.46;animation-play-state:paused" ></path></g></svg>