<?xml version="1.0" encoding="utf-8"?><svg xmlns="http://www.w3.org/2000/svg" xmlns:xlink="http://www.w3.org/1999/xlink" width="1535" height="735" preserveAspectRatio="xMidYMid" viewBox="0 0 1535 735" style="z-index:1;margin-right:-2px;display:block;background-repeat-y:initial;background-repeat-x:initial;background-color:rgb(255, 255, 255);animation-play-state:paused" ><g transform="translate(767.5,367.5) scale(1,1) translate(-767.5,-367.5)" style="transform:matrix(1, 0, 0, 1, 0, 0);animation-play-state:paused" ><linearGradient id="lg-0.4709370232094541" x1="0" x2="1" y1="0" y2="0" style="animation-play-state:paused" ><stop stop-color="#6a3093" offset="0" style="animation-play-state:paused" ></stop>

  
<stop stop-color="#a044ff" offset="1" style="animation-play-state:paused" ></stop></linearGradient>
<path d="M 0 0 L 0 547.231 Q 153.5 598.06 307 580.341 T 614 570.636 T 921 597.255 T 1228 607.794 T 1535 623.821 L 1535 0 Z" fill="url(#lg-0.4709370232094541)" opacity="0.4" style="opacity:0.4;animation-play-state:paused" ></path>
<path d="M 0 0 L 0 590.279 Q 153.5 572.82 307 540.424 T 614 575.605 T 921 619.122 T 1228 624.153 T 1535 567.071 L 1535 0 Z" fill="url(#lg-0.4709370232094541)" opacity="0.4" style="opacity:0.4;animation-play-state:paused" ></path>
<path d="M 0 0 L 0 558.298 Q 153.5 615.615 307 592.359 T 614 579.784 T 921 566.594 T 1228 554.414 T 1535 617.708 L 1535 0 Z" fill="url(#lg-0.4709370232094541)" opacity="0.4" style="opacity:0.4;animation-play-state:paused" ></path>
<path d="M 0 0 L 0 612.635 Q 153.5 631.158 307 592.033 T 614 640.961 T 921 603.454 T 1228 558.124 T 1535 560.886 L 1535 0 Z" fill="url(#lg-0.4709370232094541)" opacity="0.4" style="opacity:0.4;animation-play-state:paused" ></path>
<path d="M 0 0 L 0 629.356 Q 153.5 621.977 307 594.245 T 614 599.515 T 921 588.594 T 1228 616.646 T 1535 578.732 L 1535 0 Z" fill="url(#lg-0.4709370232094541)" opacity="0.4" style="opacity:0.4;animation-play-state:paused" ></path></g></svg>