<?xml version="1.0" encoding="UTF-8"?>
<svg xmlns="http://www.w3.org/2000/svg" xmlns:xlink="http://www.w3.org/1999/xlink" viewBox="0 0 150 150" width="150px" height="150px">
<g id="surface1253293">
<path style=" stroke:none;fill-rule:nonzero;fill:rgb(100%,100%,100%);fill-opacity:1;" d="M 75 6 C 72.855469 6 70.722656 6.539062 68.800781 7.617188 L 18.269531 36.011719 C 14.425781 38.179688 12 42.222656 12 46.605469 L 12 103.394531 C 12 107.789062 14.425781 111.832031 18.269531 114 L 68.800781 142.382812 C 72.644531 144.550781 77.355469 144.550781 81.199219 142.382812 L 131.730469 114 C 135.585938 111.832031 138 107.777344 138 103.394531 L 138 46.605469 C 138 42.222656 135.574219 38.179688 131.730469 36.011719 L 81.199219 7.617188 C 79.277344 6.539062 77.144531 6 75 6 Z M 75 12 C 76.125 12 77.261719 12.28125 78.269531 12.84375 L 128.800781 41.238281 C 130.804688 42.375 132 44.414062 132 46.605469 L 132 72 L 126 72 L 126 66 L 120 66 L 120 72 L 114 72 L 114 78 L 120 78 L 120 84 L 126 84 L 126 78 L 132 78 L 132 103.394531 C 132 105.585938 130.804688 107.625 128.789062 108.761719 L 78.269531 137.15625 C 76.253906 138.28125 73.746094 138.28125 71.730469 137.15625 L 21.210938 108.761719 C 19.195312 107.625 18 105.597656 18 103.394531 L 18 46.605469 C 18 44.414062 19.195312 42.375 21.210938 41.238281 L 71.730469 12.84375 C 72.738281 12.28125 73.875 12 75 12 Z M 75 36 C 53.519531 36 36 53.519531 36 75 C 36 96.480469 53.519531 114 75 114 C 87.269531 114 98.660156 108.28125 106.019531 98.589844 L 108.070312 95.882812 L 89.90625 85.359375 L 88.265625 87.140625 C 84.878906 90.84375 80.074219 93 75 93 C 65.050781 93 57 84.949219 57 75 C 57 65.050781 65.050781 57 75 57 C 80.074219 57 84.878906 59.15625 88.265625 62.859375 L 89.90625 64.640625 L 108.070312 54.117188 L 106.019531 51.410156 C 98.660156 41.71875 87.269531 36 75 36 Z M 75 42 C 84.222656 42 92.660156 45.949219 98.835938 52.535156 L 90.609375 57.292969 C 86.273438 53.496094 80.882812 51 75 51 C 61.792969 51 51 61.792969 51 75 C 51 88.207031 61.792969 99 75 99 C 80.882812 99 86.273438 96.503906 90.609375 92.707031 L 98.835938 97.464844 C 92.660156 104.050781 84.222656 108 75 108 C 56.777344 108 42 93.222656 42 75 C 42 56.777344 56.777344 42 75 42 Z M 99 66 L 99 72 L 93 72 L 93 78 L 99 78 L 99 84 L 105 84 L 105 78 L 111 78 L 111 72 L 105 72 L 105 66 Z M 99 66 "/>
</g>
</svg>
