<svg class="animated" id="freepik_stories-coding" xmlns="http://www.w3.org/2000/svg" viewBox="0 0 500 500" version="1.1" xmlns:xlink="http://www.w3.org/1999/xlink" xmlns:svgjs="http://svgjs.com/svgjs"><style>svg#freepik_stories-coding:not(.animated) .animable {opacity: 0;}svg#freepik_stories-coding.animated #freepik--background-complete--inject-32 {animation: 1s 1 forwards cubic-bezier(.36,-0.01,.5,1.38) lightSpeedLeft;animation-delay: 0s;}svg#freepik_stories-coding.animated #freepik--Shadow--inject-32 {animation: 1s 1 forwards cubic-bezier(.36,-0.01,.5,1.38) slideLeft;animation-delay: 0s;}svg#freepik_stories-coding.animated #freepik--Character--inject-32 {animation: 1s 1 forwards cubic-bezier(.36,-0.01,.5,1.38) fadeIn;animation-delay: 0s;}svg#freepik_stories-coding.animated #freepik--Desk--inject-32 {animation: 1s 1 forwards cubic-bezier(.36,-0.01,.5,1.38) zoomIn;animation-delay: 0s;}svg#freepik_stories-coding.animated #freepik--Coding--inject-32 {animation: 3s Infinite  linear floating;animation-delay: 0s;}            @keyframes lightSpeedLeft {              from {                transform: translate3d(-50%, 0, 0) skewX(20deg);                opacity: 0;              }              60% {                transform: skewX(-10deg);                opacity: 1;              }              80% {                transform: skewX(2deg);              }              to {                opacity: 1;                transform: translate3d(0, 0, 0);              }            }                    @keyframes slideLeft {                0% {                    opacity: 0;                    transform: translateX(-30px);                }                100% {                    opacity: 1;                    transform: translateX(0);                }            }                    @keyframes fadeIn {                0% {                    opacity: 0;                }                100% {                    opacity: 1;                }            }                    @keyframes zoomIn {                0% {                    opacity: 0;                    transform: scale(0.5);                }                100% {                    opacity: 1;                    transform: scale(1);                }            }                    @keyframes floating {                0% {                    opacity: 1;                    transform: translateY(0px);                }                50% {                    transform: translateY(-10px);                }                100% {                    opacity: 1;                    transform: translateY(0px);                }            }        .animator-hidden { display: none; }</style><g id="freepik--background-complete--inject-32" class="animable" style="transform-origin: 250px 226.87px;"><rect y="382.4" width="500" height="0.25" style="fill: rgb(235, 235, 235); transform-origin: 250px 382.525px;" id="elz4ygcd1xt9q" class="animable"></rect><rect x="332.11" y="389.21" width="97.6" height="0.25" style="fill: rgb(235, 235, 235); transform-origin: 380.91px 389.335px;" id="elpmoxexql41" class="animable"></rect><rect x="289" y="394.99" width="46.67" height="0.25" style="fill: rgb(235, 235, 235); transform-origin: 312.335px 395.115px;" id="elu316f4s7n9" class="animable"></rect><rect x="430.71" y="398.49" width="19.19" height="0.25" style="fill: rgb(235, 235, 235); transform-origin: 440.305px 398.615px;" id="eljzobcstgh3" class="animable"></rect><rect x="126.47" y="395.11" width="92.53" height="0.25" style="fill: rgb(235, 235, 235); transform-origin: 172.735px 395.235px;" id="els3yebqkzpap" class="animable"></rect><rect x="97.67" y="395.11" width="19.9" height="0.25" style="fill: rgb(235, 235, 235); transform-origin: 107.62px 395.235px;" id="elao6fkearqqi" class="animable"></rect><rect x="57.79" y="390.89" width="32.86" height="0.25" style="fill: rgb(235, 235, 235); transform-origin: 74.22px 391.015px;" id="elek7ifne0v65" class="animable"></rect><path d="M237,337.8H43.91a5.71,5.71,0,0,1-5.7-5.71V60.66A5.71,5.71,0,0,1,43.91,55H237a5.71,5.71,0,0,1,5.71,5.71V332.09A5.71,5.71,0,0,1,237,337.8ZM43.91,55.2a5.46,5.46,0,0,0-5.45,5.46V332.09a5.46,5.46,0,0,0,5.45,5.46H237a5.47,5.47,0,0,0,5.46-5.46V60.66A5.47,5.47,0,0,0,237,55.2Z" style="fill: rgb(235, 235, 235); transform-origin: 140.46px 196.4px;" id="el1uffq66dxgi" class="animable"></path><path d="M453.31,337.8H260.21a5.72,5.72,0,0,1-5.71-5.71V60.66A5.72,5.72,0,0,1,260.21,55h193.1A5.71,5.71,0,0,1,459,60.66V332.09A5.71,5.71,0,0,1,453.31,337.8ZM260.21,55.2a5.47,5.47,0,0,0-5.46,5.46V332.09a5.47,5.47,0,0,0,5.46,5.46h193.1a5.47,5.47,0,0,0,5.46-5.46V60.66a5.47,5.47,0,0,0-5.46-5.46Z" style="fill: rgb(235, 235, 235); transform-origin: 356.75px 196.4px;" id="elwd2oqdfzvu8" class="animable"></path><rect x="79.88" y="260.72" width="13.78" height="121.68" style="fill: rgb(235, 235, 235); transform-origin: 86.77px 321.56px;" id="el88d8ru1pfyr" class="animable"></rect><g id="elttmcjr9ub7h"><rect x="93.65" y="260.72" width="132.62" height="121.68" style="fill: rgb(245, 245, 245); transform-origin: 159.96px 321.56px; transform: rotate(180deg);" class="animable"></rect></g><g id="el8sx1lz3eomw"><rect x="98.54" y="265.44" width="122.84" height="112.24" style="fill: rgb(235, 235, 235); transform-origin: 159.96px 321.56px; transform: rotate(180deg);" class="animable"></rect></g><g id="elstqlq0h5jc"><rect x="100.54" y="267.66" width="118.84" height="12.3" style="fill: rgb(245, 245, 245); transform-origin: 159.96px 273.81px; transform: rotate(180deg);" class="animable"></rect></g><g id="elaifgwlssbpj"><rect x="100.54" y="281.45" width="118.84" height="33.56" style="fill: rgb(245, 245, 245); transform-origin: 159.96px 298.23px; transform: rotate(180deg);" class="animable"></rect></g><g id="elgvik0rhapr"><rect x="100.54" y="316.51" width="118.84" height="59.22" style="fill: rgb(245, 245, 245); transform-origin: 159.96px 346.12px; transform: rotate(180deg);" class="animable"></rect></g><path d="M194.53,321.26H125.4a1,1,0,0,1-1-1h0a1,1,0,0,1,1-1h69.13a1,1,0,0,1,1,1h0A1,1,0,0,1,194.53,321.26Z" style="fill: rgb(250, 250, 250); transform-origin: 159.965px 320.26px;" id="ely0eopcrlcb" class="animable"></path><path d="M194.53,286.29H125.4a1,1,0,0,1-1-1h0a1,1,0,0,1,1-1h69.13a1,1,0,0,1,1,1h0A1,1,0,0,1,194.53,286.29Z" style="fill: rgb(250, 250, 250); transform-origin: 159.965px 285.29px;" id="eload4wvkg87r" class="animable"></path><path d="M194.53,272.49H125.4a1,1,0,0,1-1-1h0a1,1,0,0,1,1-1h69.13a1,1,0,0,1,1,1h0A1,1,0,0,1,194.53,272.49Z" style="fill: rgb(250, 250, 250); transform-origin: 159.965px 271.49px;" id="elc6fyal69xyi" class="animable"></path><g id="el6auod3upj5d"><rect x="72.89" y="174.32" width="167.4" height="54.01" style="fill: rgb(240, 240, 240); transform-origin: 156.59px 201.325px; transform: rotate(180deg);" class="animable"></rect></g><g id="elg8t91m04sx"><rect x="134.31" y="122.35" width="44.56" height="157.95" style="fill: rgb(230, 230, 230); transform-origin: 156.59px 201.325px; transform: rotate(90deg);" class="animable"></rect></g><g id="elfm5aqsh3dw"><rect x="201.94" y="189.98" width="44.56" height="22.69" style="fill: rgb(224, 224, 224); transform-origin: 224.22px 201.325px; transform: rotate(90deg);" class="animable"></rect></g><g id="el543ac3b64su"><rect x="40.01" y="195.45" width="54.01" height="11.76" style="fill: rgb(230, 230, 230); transform-origin: 67.015px 201.33px; transform: rotate(90deg);" class="animable"></rect></g><g id="el7h8j1svln0v"><rect x="206.82" y="182.64" width="9.87" height="40.97" style="fill: rgb(240, 240, 240); transform-origin: 211.755px 203.125px; transform: rotate(180deg);" class="animable"></rect></g><rect x="180.44" y="182.64" width="26.38" height="40.97" style="fill: rgb(224, 224, 224); transform-origin: 193.63px 203.125px;" id="elbrfklfwzyca" class="animable"></rect><g id="elm1sjwliv77m"><rect x="198.06" y="187.32" width="5.56" height="36.28" style="fill: rgb(250, 250, 250); transform-origin: 200.84px 205.46px; transform: rotate(180deg);" class="animable"></rect></g><rect x="183.2" y="187.32" width="14.86" height="36.28" style="fill: rgb(235, 235, 235); transform-origin: 190.63px 205.46px;" id="elyah6punb10b" class="animable"></rect><polygon points="181.15 223.61 189.38 223.61 194.13 189.42 185.89 189.42 181.15 223.61" style="fill: rgb(250, 250, 250); transform-origin: 187.64px 206.515px;" id="elve9325ez38s" class="animable"></polygon><polygon points="181.15 223.61 159.13 223.61 163.88 189.42 185.89 189.42 181.15 223.61" style="fill: rgb(235, 235, 235); transform-origin: 172.51px 206.515px;" id="elr3r0o02uuln" class="animable"></polygon><g id="elsvioginbt6h"><rect x="148.14" y="198.19" width="9.87" height="40.97" style="fill: rgb(230, 230, 230); transform-origin: 153.075px 218.675px; transform: rotate(90deg);" class="animable"></rect></g><g id="eljawz2yc3iuh"><rect x="120.09" y="211.11" width="9.87" height="15.13" style="fill: rgb(224, 224, 224); transform-origin: 125.025px 218.675px; transform: rotate(90deg);" class="animable"></rect></g><g id="elavzozqbahne"><rect x="120.55" y="211.77" width="7.62" height="13.8" style="fill: rgb(240, 240, 240); transform-origin: 124.36px 218.67px; transform: rotate(90deg);" class="animable"></rect></g><g id="elec9gd1cqpx5"><rect x="146.71" y="189.41" width="7.69" height="40.97" style="fill: rgb(240, 240, 240); transform-origin: 150.555px 209.895px; transform: rotate(90deg);" class="animable"></rect></g><g id="ellwlzvi9o2on"><rect x="118.66" y="202.33" width="7.69" height="15.13" style="fill: rgb(230, 230, 230); transform-origin: 122.505px 209.895px; transform: rotate(90deg);" class="animable"></rect></g><g id="elms3j19ul50a"><rect x="118.87" y="202.99" width="5.94" height="13.8" style="fill: rgb(240, 240, 240); transform-origin: 121.84px 209.89px; transform: rotate(90deg);" class="animable"></rect></g><g id="el4u86hphrz6e"><rect x="104.84" y="190.41" width="7.99" height="33.2" style="fill: rgb(240, 240, 240); transform-origin: 108.835px 207.01px; transform: rotate(180deg);" class="animable"></rect></g><rect x="83.47" y="190.41" width="21.37" height="33.2" style="fill: rgb(224, 224, 224); transform-origin: 94.155px 207.01px;" id="elrkkyca944uc" class="animable"></rect><g id="eldv7it7zr4g6"><rect x="87.17" y="194.21" width="7.68" height="29.4" style="fill: rgb(250, 250, 250); transform-origin: 91.01px 208.91px; transform: rotate(180deg);" class="animable"></rect></g><rect x="77.62" y="194.21" width="9.55" height="29.4" style="fill: rgb(235, 235, 235); transform-origin: 82.395px 208.91px;" id="el8j4qnvx0cm9" class="animable"></rect><g id="el5wnzr1tjpk5"><rect x="72.89" y="106.26" width="167.4" height="54.01" style="fill: rgb(240, 240, 240); transform-origin: 156.59px 133.265px; transform: rotate(180deg);" class="animable"></rect></g><g id="eljfpqprky0r"><rect x="134.31" y="54.29" width="44.56" height="157.95" style="fill: rgb(230, 230, 230); transform-origin: 156.59px 133.265px; transform: rotate(90deg);" class="animable"></rect></g><g id="elpcakjhaxyk"><rect x="201.94" y="121.91" width="44.56" height="22.69" style="fill: rgb(224, 224, 224); transform-origin: 224.22px 133.255px; transform: rotate(90deg);" class="animable"></rect></g><g id="elrru230caha"><rect x="40.01" y="127.38" width="54.01" height="11.76" style="fill: rgb(230, 230, 230); transform-origin: 67.015px 133.26px; transform: rotate(90deg);" class="animable"></rect></g><g id="elaxl2rgfd4w"><rect x="155.48" y="129.49" width="8.59" height="26.05" style="fill: rgb(240, 240, 240); transform-origin: 159.775px 142.515px; transform: rotate(180deg);" class="animable"></rect></g><rect x="142.74" y="129.49" width="12.75" height="26.05" style="fill: rgb(224, 224, 224); transform-origin: 149.115px 142.515px;" id="el763sfb6a0nc" class="animable"></rect><g id="ely2lfuy9u0bd"><rect x="146.05" y="123.96" width="4.84" height="31.58" style="fill: rgb(250, 250, 250); transform-origin: 148.47px 139.75px; transform: rotate(180deg);" class="animable"></rect></g><rect x="133.12" y="123.96" width="12.93" height="31.58" style="fill: rgb(235, 235, 235); transform-origin: 139.585px 139.75px;" id="elsudx1sn81y8" class="animable"></rect><polygon points="217.36 155.54 224.53 155.54 228.66 125.78 221.49 125.78 217.36 155.54" style="fill: rgb(240, 240, 240); transform-origin: 223.01px 140.66px;" id="el2ns78tiscvf" class="animable"></polygon><polygon points="217.36 155.54 198.2 155.54 202.33 125.78 221.49 125.78 217.36 155.54" style="fill: rgb(224, 224, 224); transform-origin: 209.845px 140.66px;" id="el2fxb3bux1rp" class="animable"></polygon><g id="eligg6l2mkzp"><rect x="112.49" y="131.71" width="9.25" height="38.41" style="fill: rgb(245, 245, 245); transform-origin: 117.115px 150.915px; transform: rotate(90deg);" class="animable"></rect></g><g id="eldq74knorgti"><rect x="86.19" y="143.83" width="9.25" height="14.18" style="fill: rgb(224, 224, 224); transform-origin: 90.815px 150.92px; transform: rotate(90deg);" class="animable"></rect></g><g id="elkgqqeo62ugg"><rect x="86.63" y="144.45" width="7.14" height="12.94" style="fill: rgb(240, 240, 240); transform-origin: 90.2px 150.92px; transform: rotate(90deg);" class="animable"></rect></g><g id="elmqy5qt8r8jf"><rect x="111.71" y="119.81" width="7.48" height="31.05" style="fill: rgb(250, 250, 250); transform-origin: 115.45px 135.335px; transform: rotate(90deg);" class="animable"></rect></g><g id="elon5jpazzmv"><rect x="90.45" y="129.61" width="7.48" height="11.47" style="fill: rgb(224, 224, 224); transform-origin: 94.19px 135.345px; transform: rotate(90deg);" class="animable"></rect></g><g id="el0rql5l5qc6bg"><rect x="90.8" y="130.11" width="5.78" height="10.46" style="fill: rgb(245, 245, 245); transform-origin: 93.69px 135.34px; transform: rotate(90deg);" class="animable"></rect></g><g id="elz6vywq6ywr"><rect x="192.33" y="136.24" width="7.48" height="31.05" style="fill: rgb(250, 250, 250); transform-origin: 196.07px 151.765px; transform: rotate(90deg);" class="animable"></rect></g><g id="elrkfdi6pxc9q"><rect x="171.07" y="146.04" width="7.48" height="11.47" style="fill: rgb(224, 224, 224); transform-origin: 174.81px 151.775px; transform: rotate(90deg);" class="animable"></rect></g><g id="elvt1nbfyi1mb"><rect x="171.42" y="146.54" width="5.78" height="10.46" style="fill: rgb(245, 245, 245); transform-origin: 174.31px 151.77px; transform: rotate(90deg);" class="animable"></rect></g><g id="eli5ig6s55azg"><rect x="111.15" y="123.48" width="7.21" height="38.41" style="fill: rgb(240, 240, 240); transform-origin: 114.755px 142.685px; transform: rotate(90deg);" class="animable"></rect></g><g id="eldigu33k5qdf"><rect x="84.85" y="135.59" width="7.21" height="14.18" style="fill: rgb(230, 230, 230); transform-origin: 88.455px 142.68px; transform: rotate(90deg);" class="animable"></rect></g><g id="el1rx70szyvs4"><rect x="85.05" y="136.22" width="5.57" height="12.94" style="fill: rgb(240, 240, 240); transform-origin: 87.835px 142.69px; transform: rotate(90deg);" class="animable"></rect></g><polygon points="306.54 118.11 423.91 118.11 428.94 382.4 311.58 382.4 306.54 118.11" style="fill: rgb(245, 245, 245); transform-origin: 367.74px 250.255px;" id="elsegevr0yi4" class="animable"></polygon><path d="M424.56,362.7l-4.29-225.47a15.41,15.41,0,0,0-15.41-15.12H326.33a15.41,15.41,0,0,0-15.41,15.7l4.29,225.47a15.41,15.41,0,0,0,15.41,15.12h78.54A15.4,15.4,0,0,0,424.56,362.7Z" style="fill: rgb(240, 240, 240); transform-origin: 367.74px 250.255px;" id="ell8jftb3754m" class="animable"></path><polygon points="306.54 118.11 304.3 118.11 309.33 382.4 311.58 382.4 306.54 118.11" style="fill: rgb(230, 230, 230); transform-origin: 307.94px 250.255px;" id="elj2dkv7icre" class="animable"></polygon><polygon points="369.23 122.11 386.89 122.11 401.39 378.4 383.73 378.4 369.23 122.11" style="fill: rgb(250, 250, 250); transform-origin: 385.31px 250.255px;" id="elx5ug9w27o1" class="animable"></polygon><polygon points="355.35 122.11 364.18 122.11 378.68 378.4 369.85 378.4 355.35 122.11" style="fill: rgb(250, 250, 250); transform-origin: 367.015px 250.255px;" id="el9i8zpou7kqa" class="animable"></polygon></g><g id="freepik--Shadow--inject-32" class="animable animator-hidden" style="transform-origin: 250px 416.24px;"><ellipse id="freepik--path--inject-32" cx="250" cy="416.24" rx="193.89" ry="11.32" style="fill: rgb(245, 245, 245); transform-origin: 250px 416.24px;" class="animable"></ellipse></g><g id="freepik--Character--inject-32" class="animable" style="transform-origin: 230.685px 285.959px;"><path d="M182.31,316.24H268.5c-3-6.54-8.47-10.55-14.37-10.55h-67Z" style="fill: rgb(255, 193, 0); transform-origin: 225.405px 310.965px;" id="el6w4qmcm2teq" class="animable"></path><path d="M167.79,316.24h34.52c-3-6.54-8.47-10.55-14.38-10.55H175.71c-5.9,0-8.83,3.41-7.92,10.55Z" style="fill: rgb(255, 193, 0); transform-origin: 184.968px 310.965px;" id="elgl4ynq9ssg" class="animable"></path><g id="elv0yf7ef4gf"><path d="M167.79,316.24h34.52c-3-6.54-8.47-10.55-14.38-10.55H175.71c-5.9,0-8.83,3.41-7.92,10.55Z" style="fill: rgb(38, 50, 56); opacity: 0.5; transform-origin: 184.968px 310.965px;" class="animable"></path></g><polygon points="228.59 407.5 221.11 407.5 221.11 316.24 212.9 316.24 212.9 407.5 205.42 407.5 197.36 414.96 212.9 414.96 221.11 414.96 236.65 414.96 228.59 407.5" style="fill: rgb(255, 193, 0); transform-origin: 217.005px 365.6px;" id="el0i8dduadf51v" class="animable"></polygon><g id="elum0o99bnahn"><polygon points="228.59 407.5 221.11 407.5 221.11 316.24 212.9 316.24 212.9 407.5 205.42 407.5 197.36 414.96 212.9 414.96 221.11 414.96 236.65 414.96 228.59 407.5" style="fill: rgb(255, 255, 255); opacity: 0.7; transform-origin: 217.005px 365.6px;" class="animable"></polygon></g><g id="eloqzl2pfs5or"><rect x="212.9" y="316.24" width="8.21" height="3.06" style="fill: rgb(255, 193, 0); opacity: 0.5; transform-origin: 217.005px 317.77px;" class="animable"></rect></g><polygon points="274.71 404.95 283.68 402.68 281.55 381.16 272.58 383.43 274.71 404.95" style="fill: rgb(181, 91, 82); transform-origin: 278.13px 393.055px;" id="el6he7tucs2vr" class="animable"></polygon><path d="M284.07,398.71,273.77,400a.66.66,0,0,0-.6.72l.55,8.21a1.64,1.64,0,0,0,1.82,1.42c3.57-.52,5-.91,9.52-1.82a131.68,131.68,0,0,0,13-3.17c3.59-1.21,2.34-4.84.67-4.64-3.95.47-10.17,0-13-1.69A2.67,2.67,0,0,0,284.07,398.71Z" style="fill: rgb(38, 50, 56); transform-origin: 286.77px 404.524px;" id="eluecd3pjy0sj" class="animable"></path><g id="el04947k57bc2"><polygon points="272.58 383.44 281.56 381.17 282.58 391.53 273.57 393.49 272.58 383.44" style="opacity: 0.2; transform-origin: 277.58px 387.33px;" class="animable"></polygon></g><path d="M214,275.54s66.47-2.23,66.69,24.28c.31,38.09,4.45,85.38,4.45,85.38l-16.74,2.48S257,342.29,257.21,312.55c-18.69-5.28-67.23-1.84-72.95-17.33-4.67-12.68-2.23-19.68-2.23-19.68Z" style="fill: rgb(38, 50, 56); transform-origin: 233.266px 331.587px;" id="el27yrgf6wg35" class="animable"></path><g id="el31srberec8u"><path d="M241.25,283.71s-2,15.16,4.91,26.85a74.05,74.05,0,0,1,11.06,2,78.84,78.84,0,0,0,.46,8.65C268.8,304.62,259.7,285.8,241.25,283.71Z" style="opacity: 0.3; transform-origin: 251.752px 302.46px;" class="animable"></path></g><polygon points="267.1 392.08 286.49 388.43 286.81 380.91 265.29 384.7 267.1 392.08" style="fill: rgb(255, 193, 0); transform-origin: 276.05px 386.495px;" id="el9uk4qoz88fn" class="animable"></polygon><path d="M287.52,399.89a11.35,11.35,0,0,1-2.48,0,.23.23,0,0,1-.19-.15.22.22,0,0,1,.06-.22c.27-.24,2.64-2.35,3.81-2.06a.85.85,0,0,1,.58.54,1.2,1.2,0,0,1-.12,1.2A2.53,2.53,0,0,1,287.52,399.89Zm-1.94-.4c1.69.12,2.89-.09,3.26-.57a.78.78,0,0,0,.05-.78.37.37,0,0,0-.27-.27C288,397.71,286.56,398.68,285.58,399.49Z" style="fill: rgb(255, 193, 0); transform-origin: 287.125px 398.695px;" id="el42b44iu9z9g" class="animable"></path><path d="M285.09,399.88H285a.21.21,0,0,1-.13-.16c0-.11-.57-2.72.24-3.73a1.11,1.11,0,0,1,.87-.42.83.83,0,0,1,.85.55c.34,1-.78,3.06-1.62,3.73Zm.77-3.88a.66.66,0,0,0-.44.25c-.48.6-.36,2.12-.22,3,.71-.78,1.43-2.35,1.21-3-.05-.12-.14-.26-.45-.26Z" style="fill: rgb(255, 193, 0); transform-origin: 285.784px 397.724px;" id="elns7vcl1a83b" class="animable"></path><polygon points="235.92 406.93 245.09 405.76 246.59 384 237.42 385.16 235.92 406.93" style="fill: rgb(181, 91, 82); transform-origin: 241.255px 395.465px;" id="el34bxixv8fox" class="animable"></polygon><path d="M245.3,404.5l-10.38-.33a.67.67,0,0,0-.71.61l-.76,8.2a1.64,1.64,0,0,0,1.57,1.69c3.61.05,5.34-.11,9.91,0,2.81.09,8.33.5,12.18,0s3.26-4.28,1.59-4.42c-4-.32-9.29-3.06-11.83-5.19A2.59,2.59,0,0,0,245.3,404.5Z" style="fill: rgb(38, 50, 56); transform-origin: 246.721px 409.541px;" id="elga6z0kqi70p" class="animable"></path><path d="M248.52,406.21a10.88,10.88,0,0,1-2.45-.41.23.23,0,0,1-.16-.17.22.22,0,0,1,.1-.21c.3-.2,3-1.9,4.09-1.43a.83.83,0,0,1,.48.63,1.19,1.19,0,0,1-.31,1.16A2.52,2.52,0,0,1,248.52,406.21Zm-1.85-.7c1.64.38,2.86.37,3.31-.05a.76.76,0,0,0,.17-.76.38.38,0,0,0-.22-.31C249.33,404.13,247.77,404.86,246.67,405.51Z" style="fill: rgb(255, 193, 0); transform-origin: 248.265px 405.069px;" id="elyyug7ouz769" class="animable"></path><path d="M246.12,405.81a.19.19,0,0,1-.1,0,.2.2,0,0,1-.11-.17c0-.12-.13-2.78.83-3.65a1.1,1.1,0,0,1,.92-.27.81.81,0,0,1,.76.68c.19,1-1.25,2.9-2.19,3.41A.2.2,0,0,1,246.12,405.81Zm1.38-3.7a.64.64,0,0,0-.47.17c-.57.52-.7,2-.7,2.92.83-.66,1.79-2.09,1.67-2.76,0-.12-.09-.28-.4-.32Z" style="fill: rgb(255, 193, 0); transform-origin: 247.171px 403.761px;" id="elb54zpj42p46" class="animable"></path><g id="elffdfkpbbdo8"><polygon points="237.42 385.17 246.59 384 245.73 396.45 236.59 397.16 237.42 385.17" style="opacity: 0.2; transform-origin: 241.59px 390.58px;" class="animable"></polygon></g><path d="M191.39,275.54s66.37,6.28,64,26.26c-3.49,28.81-5.21,90.91-5.21,90.91l-16.92.67s-7.17-56-3.46-85.52c-17.17,0-59.22,1.23-63.06-9.12-3.38-9.14-2.17-23.2-2.17-23.2Z" style="fill: rgb(38, 50, 56); transform-origin: 209.906px 334.46px;" id="el1xkv55rslyh" class="animable"></path><polygon points="231.35 394.42 251.66 393.41 252.39 384.58 230.12 386.11 231.35 394.42" style="fill: rgb(255, 193, 0); transform-origin: 241.255px 389.5px;" id="el22jiuhusgrw" class="animable"></polygon><path d="M220.08,215.83l.57,4.6c.2,1.56.42,3.12.66,4.67.5,3.11,1,6.21,1.63,9.25s1.31,6,2.13,8.9a44,44,0,0,0,3,7.85,13.93,13.93,0,0,0,1.73,2.66c.1.12.31.32.52.52s.43.4.65.6c.46.39,1,.79,1.51,1.18a47.66,47.66,0,0,0,7.54,4.27A164.07,164.07,0,0,0,257.56,267l-1.08,6.86a80.22,80.22,0,0,1-10.22-1c-1.68-.26-3.37-.58-5-1s-3.38-.8-5.06-1.31A49.92,49.92,0,0,1,226,266.42a29.42,29.42,0,0,1-2.55-1.58c-.42-.3-.84-.59-1.26-.94a16.23,16.23,0,0,1-1.31-1.11,25.37,25.37,0,0,1-4.12-5.19,53.3,53.3,0,0,1-4.62-10.21,101.6,101.6,0,0,1-2.85-10.08c-.76-3.35-1.43-6.7-1.92-10.06-.26-1.68-.49-3.36-.71-5s-.38-3.33-.52-5.16Z" style="fill: rgb(181, 91, 82); transform-origin: 231.85px 244.845px;" id="elsw4rcoap0j9" class="animable"></path><path d="M206.06,209.15c6.79-6.55,15.15-2.68,18.49,9.6a113.63,113.63,0,0,1,3.86,20.14l-21.49,4.44C203,231.61,199.12,215.87,206.06,209.15Z" style="fill: rgb(255, 193, 0); transform-origin: 215.323px 224.663px;" id="el3iofxvra81q" class="animable"></path><g id="eltfc62gsgl7"><path d="M213,222.56c-1.54-1.38-5.9,4.81-8.57,12.48.76,2.86,1.62,5.68,2.49,8.3l12.93-2.68C218.81,233,216.43,225.67,213,222.56Z" style="opacity: 0.3; transform-origin: 212.14px 232.853px;" class="animable"></path></g><path d="M256.24,265.25l5.12.32-4.09,9.4s-8.83-.21-8.64-4.55l1.59-2.08A8.32,8.32,0,0,1,256.24,265.25Z" style="fill: rgb(181, 91, 82); transform-origin: 254.993px 270.11px;" id="elne45tw3mvto" class="animable"></path><polygon points="266.94 266.33 262.52 274.97 257.27 274.97 261.36 265.57 266.94 266.33" style="fill: rgb(181, 91, 82); transform-origin: 262.105px 270.27px;" id="el9ra0b8zs1qn" class="animable"></polygon><path d="M206.86,202.58l-10.3-2.94L183.32,199a9.19,9.19,0,0,0-9.16,6.33c-2.53,7.7-4.85,18.85-6.54,28.47-1.9,10.78-2.89,27-3.09,41.73H214c1.13-30.73,5-48.9,6.77-59a9.16,9.16,0,0,0-5.09-9.83Z" style="fill: rgb(255, 193, 0); transform-origin: 192.717px 237.26px;" id="eljyserec3mlm" class="animable"></path><g id="ellqo5x07tyea"><path d="M172.58,210.67c-1.91,7-3.63,15.57-5,23.14a217.28,217.28,0,0,0-2.43,23.33c8.15-.81,17.15-10.19,20-22.82C188,222,181.39,209.18,172.58,210.67Z" style="opacity: 0.3; transform-origin: 175.486px 233.846px;" class="animable"></path></g><path d="M200.67,182.91l4,6.11,5.45,8.33a8.23,8.23,0,0,0-1.68,2.46c-1,2-1.82,3.51,2.39,6.38a2.78,2.78,0,0,1,1.26,2.76c-.24,1.3-1.54,2.56-6.09,1.76a20.92,20.92,0,0,1-11.4-6.33c-1.52-1.51-1.17-2.65.29-4.22C199,195.72,200.26,188.63,200.67,182.91Z" style="fill: rgb(181, 91, 82); transform-origin: 202.868px 196.935px;" id="elh5bb8ctbuu8" class="animable"></path><g id="elfpf9emhvycm"><path d="M208.78,195.3l-3.34-5.94-.23.49a16.2,16.2,0,0,0-.72,2.28c-.61,2.63,1.44,6.4,3.69,8.19l.26-.51a9.92,9.92,0,0,1,1.54-2.36.67.67,0,0,1,.14-.11Z" style="opacity: 0.2; transform-origin: 207.251px 194.84px;" class="animable"></path></g><path d="M207.25,218.82a.29.29,0,0,1-.07-.56l.71-.17c3.62-.79,12.1-2.64,11.33-35.18a.29.29,0,0,1,.28-.29h0a.29.29,0,0,1,.29.28c.78,33-8,34.93-11.78,35.75-.25,0-.48.1-.68.16Z" style="fill: rgb(38, 50, 56); transform-origin: 213.415px 200.72px;" id="elo46k7026h1l" class="animable"></path><path d="M227.57,173.85c-1.46-4.36-6.7-1.46-6.7-1.46s-.07,9.13,2.74,11.47S229,178.25,227.57,173.85Z" style="fill: rgb(38, 50, 56); transform-origin: 224.424px 177.864px;" id="elr7jn182bkk" class="animable"></path><path d="M202.08,172.09c-1.61,9.06-3,14.26.35,20.07a12,12,0,0,0,21.16-.61c3.83-7.47,5.81-21-2-27A12.1,12.1,0,0,0,202.08,172.09Z" style="fill: rgb(181, 91, 82); transform-origin: 213.665px 180.05px;" id="eljgpnmkiele" class="animable"></path><path d="M200.37,177.42c-2.44,3.88,3.65,5.3,3.65,5.3s7.29-5.49,7.44-9.14S202.31,174.34,200.37,177.42Z" style="fill: rgb(38, 50, 56); transform-origin: 205.627px 177.461px;" id="eltqogrfcr8ro" class="animable"></path><path d="M198,178.88c-1.2-1-2.52-4.81-1.51-8.16s4.23-7,7.13-5.81c1.08-3.09,15.92-6.89,20.88,0,5.78,8.05,2.75,12.19-2.06,9.07l-8.8-2.85Z" style="fill: rgb(38, 50, 56); transform-origin: 211.895px 169.96px;" id="eln3fyqq1wzkl" class="animable"></path><path d="M224.37,173.25c-2.35,2.78-11.26,2.15-11.26,2.15l2.92-3.2a9.76,9.76,0,0,1-6.76,1.87c-4.37-.25-2-4.74-2-4.74S228.79,168,224.37,173.25Z" style="fill: rgb(38, 50, 56); transform-origin: 215.798px 172.32px;" id="elfbw34vvndir" class="animable"></path><path d="M197.2,178.65a8.14,8.14,0,0,0,1.83,5.51c1.66,2,4.22.4,4.82-2.06.53-2.21-.16-5.64-2.34-6.7S197.31,176.17,197.2,178.65Z" style="fill: rgb(181, 91, 82); transform-origin: 200.606px 180.078px;" id="eli254l79fk8b" class="animable"></path><path d="M196.33,172.9a10.78,10.78,0,0,1,2.35-8.48c-.82.19-3.39-1.32,1.34-4.48s14.55-4,19.44-1.59c9.58,4.7,6.93,10.26,6.93,10.26Z" style="fill: rgb(255, 193, 0); transform-origin: 211.468px 164.929px;" id="ely0z1lmo0k1" class="animable"></path><g id="eleutve7mn17u"><path d="M196.33,172.9a10.78,10.78,0,0,1,2.35-8.48c-.82.19-3.39-1.32,1.34-4.48s14.55-4,19.44-1.59c9.58,4.7,6.93,10.26,6.93,10.26Z" style="opacity: 0.3; transform-origin: 211.468px 164.929px;" class="animable"></path></g><path d="M196.52,178.6c1.66.06,3.27-4.95,17.34-7.48,5.68-1,11.63.8,13.29,2.44s.88-3.75.28-5.68-9.39-3.47-15.1-2.78c-9.91,1.19-15.86,6.24-16.68,7.51S195,178.56,196.52,178.6Z" style="fill: rgb(255, 193, 0); transform-origin: 211.656px 171.766px;" id="eli7y6u9aayif" class="animable"></path><path d="M201.7,180a1.73,1.73,0,0,1-.73,2.26c-.73.23-1.59-.39-1.92-1.4a1.73,1.73,0,0,1,.73-2.26C200.51,178.37,201.37,179,201.7,180Z" style="fill: rgb(38, 50, 56); transform-origin: 200.375px 180.43px;" id="elr5lqmg2j03e" class="animable"></path><path d="M202.88,274.54c-1.72,0-2.86-.46-3.49-1.41-1.54-2.3.43-7.05,2.52-12.08,2-4.7,4-9.57,3.44-12.91-1-6.37-.08-14.41.82-22.18.3-2.56.58-5,.79-7.32-3.87-4-7.77-9.13-5.72-19.69,1.36-7,1.06-12.8-.89-17.3a.27.27,0,0,1,.14-.37.29.29,0,0,1,.38.14c2,4.62,2.31,10.55.93,17.64-2,10.37,1.86,15.39,5.66,19.27a.32.32,0,0,1,.07.23c-.21,2.39-.49,4.86-.8,7.47-.89,7.73-1.82,15.73-.82,22,.56,3.5-1.49,8.44-3.48,13.22s-3.94,9.5-2.57,11.55c.52.78,1.51,1.16,3,1.16a.28.28,0,0,1,0,.56Z" style="fill: rgb(38, 50, 56); transform-origin: 203.186px 227.897px;" id="eluimumipt8er" class="animable"></path><path d="M215.89,180.47c-.23.71,0,1.42.41,1.59s1-.27,1.24-1,.06-1.42-.4-1.59S216.12,179.76,215.89,180.47Z" style="fill: rgb(38, 50, 56); transform-origin: 216.723px 180.766px;" id="el1x9e9a0xjfoi" class="animable"></path><g id="elrhi7t2r8r4o"><ellipse cx="224.63" cy="183.68" rx="1.35" ry="0.88" style="fill: rgb(38, 50, 56); transform-origin: 224.63px 183.68px; transform: rotate(-73.31deg);" class="animable"></ellipse></g><path d="M221.09,183a23.82,23.82,0,0,0,.74,6.27c-1.42.52-3-.71-3-.71Z" style="fill: rgb(160, 39, 36); transform-origin: 220.33px 186.199px;" id="elq6z1v1s1vsc" class="animable"></path><path d="M216.85,192.45a6.45,6.45,0,0,1-3.77-3.33.22.22,0,0,1,.12-.28.22.22,0,0,1,.29.12,6.13,6.13,0,0,0,4.29,3.3.22.22,0,0,1,.17.26.22.22,0,0,1-.26.17A7.41,7.41,0,0,1,216.85,192.45Z" style="fill: rgb(38, 50, 56); transform-origin: 215.51px 190.759px;" id="el34uuuq8r71o" class="animable"></path><path d="M215.16,177.41a.45.45,0,0,1-.16-.15.43.43,0,0,1,.14-.6,4.21,4.21,0,0,1,3.93-.41.44.44,0,1,1-.38.79,3.36,3.36,0,0,0-3.08.35A.45.45,0,0,1,215.16,177.41Z" style="fill: rgb(38, 50, 56); transform-origin: 217.143px 176.702px;" id="el9i51ctqv4e" class="animable"></path><path d="M225.37,178.8a.42.42,0,0,1,0-.22.44.44,0,0,1,.57-.24,4.19,4.19,0,0,1,2.57,3,.44.44,0,0,1-.86.14,3.36,3.36,0,0,0-2.05-2.34A.41.41,0,0,1,225.37,178.8Z" style="fill: rgb(38, 50, 56); transform-origin: 226.933px 180.049px;" id="el4cmg48h9vxq" class="animable"></path><path d="M188,212.73c-.83,1.5-1.74,3.21-2.6,4.83s-1.71,3.31-2.53,5c-1.65,3.33-3.2,6.68-4.61,10a77.64,77.64,0,0,0-3.46,10,30.88,30.88,0,0,0-.84,4.56c-.17,1.33.07,2.77,0,2.46a6,6,0,0,0,1.9,2,24.11,24.11,0,0,0,4,2.41,73.13,73.13,0,0,0,10,3.92C193.32,259,197,260,200.61,261s7.42,1.78,11.06,2.58l-.68,6.91A135.68,135.68,0,0,1,187.2,268a74.26,74.26,0,0,1-12-3.37,35.76,35.76,0,0,1-6.19-3.05,17.64,17.64,0,0,1-6.17-6.15,13.2,13.2,0,0,1-1.09-2.63l-.19-.69-.11-.54c-.09-.37-.14-.71-.2-1.07a24.87,24.87,0,0,1-.25-3.95,38.09,38.09,0,0,1,.79-6.91,77.37,77.37,0,0,1,3.56-12.15c1.43-3.84,3.06-7.54,4.81-11.16q1.32-2.72,2.73-5.37c.94-1.8,1.89-3.48,3-5.33Z" style="fill: rgb(181, 91, 82); transform-origin: 186.333px 238.06px;" id="elkgxuytbflgi" class="animable"></path><path d="M180.39,199.17c9.32-1.42,13.9,6.58,9.52,18.52a113.84,113.84,0,0,1-8.52,18.65l-20.09-8.81C164.9,215.71,170.83,200.62,180.39,199.17Z" style="fill: rgb(255, 193, 0); transform-origin: 176.442px 217.674px;" id="el9n2zasxc7ni" class="animable"></path><path d="M212.48,263.66l5.58,1.91-7.41,7.08s-9.05-3.25-7.2-7.18l2.28-1.3A8.3,8.3,0,0,1,212.48,263.66Z" style="fill: rgb(181, 91, 82); transform-origin: 210.63px 267.911px;" id="el0lj41ai83v1" class="animable"></path><polygon points="224.63 269.33 216.26 274.26 210.66 272.65 218.06 265.57 224.63 269.33" style="fill: rgb(181, 91, 82); transform-origin: 217.645px 269.915px;" id="elyo4wktut3t" class="animable"></polygon></g><g id="freepik--Desk--inject-32" class="animable" style="transform-origin: 251.74px 321.454px;"><rect x="148.67" y="274.68" width="207.62" height="6.76" style="fill: rgb(255, 193, 0); transform-origin: 252.48px 278.06px;" id="elx1lup8u4zl" class="animable"></rect><g id="eltjinqi2c3f"><rect x="148.67" y="274.68" width="207.62" height="6.76" style="fill: rgb(255, 255, 255); opacity: 0.6; transform-origin: 252.48px 278.06px;" class="animable"></rect></g><g id="elr000sms3jm"><rect x="148.67" y="274.68" width="41.43" height="6.76" style="fill: rgb(255, 193, 0); opacity: 0.5; transform-origin: 169.385px 278.06px; transform: rotate(180deg);" class="animable"></rect></g><path d="M300.06,272.44H202.23a2.25,2.25,0,0,0-2.24,2.24H302.31A2.25,2.25,0,0,0,300.06,272.44Z" style="fill: rgb(255, 193, 0); transform-origin: 251.15px 273.56px;" id="el7fqmzrm61ej" class="animable"></path><path d="M313,226.67H246.15a2.07,2.07,0,0,0-1.88,1.48l-11,41.24a1.1,1.1,0,0,0,1.09,1.48h66.88a2,2,0,0,0,1.87-1.48l11-41.24A1.1,1.1,0,0,0,313,226.67Z" style="fill: rgb(255, 193, 0); transform-origin: 273.69px 248.769px;" id="el9kwqi2f13wv" class="animable"></path><g id="elzwucap9rayp"><path d="M244.27,228.15l-11,41.24a1.1,1.1,0,0,0,1.09,1.48l11.76-44.2A2.07,2.07,0,0,0,244.27,228.15Z" style="opacity: 0.2; transform-origin: 239.661px 248.771px;" class="animable"></path></g><g id="elm43iialojgf"><path d="M230.78,272.44H202.23a2.25,2.25,0,0,0-2.24,2.24h33A2.25,2.25,0,0,0,230.78,272.44Z" style="opacity: 0.2; transform-origin: 216.49px 273.56px;" class="animable"></path></g><path d="M191.56,416.24h4l-5.61-30.9h3.49v-4H189.2l-17.42-95.94h2.57v-4h-9.94v4H167l-17.42,95.94h-4.22v4h3.49l-5.61,30.9h4l5.61-30.9H186Zm-38-34.88,15.85-87.25,15.84,87.25Z" style="fill: rgb(255, 193, 0); transform-origin: 169.4px 348.82px;" id="elwnr856yak9" class="animable"></path><path d="M356.24,412.56h4l-5.61-27.22h3.49v-4h-4.22l-17.42-95.94H339v-4h-9.94v4h2.57l-17.42,95.94H310v4h3.49l-5.61,27.22h4l5.61-27.22h33.14Zm-38-31.2,15.84-87.25,15.85,87.25Z" style="fill: rgb(255, 193, 0); transform-origin: 334.06px 346.98px;" id="el7n13vf3jq4n" class="animable"></path><rect x="311.4" y="272.44" width="27.1" height="2.24" rx="0.73" style="fill: rgb(38, 50, 56); transform-origin: 324.95px 273.56px;" id="el1r8msxelexo" class="animable"></rect></g><g id="freepik--Coding--inject-32" class="animable animator-active" style="transform-origin: 303.765px 174.056px;"><g id="elq03c7rbyyk"><path d="M266.6,218.94a1.29,1.29,0,0,1-1.3-1.43l4.11-46.24a1.6,1.6,0,0,1,1.56-1.43h56.28a1.29,1.29,0,0,1,1.3,1.43l-4.11,46.24a1.6,1.6,0,0,1-1.56,1.43Z" style="fill: rgb(38, 50, 56); opacity: 0.9; transform-origin: 296.925px 194.39px;" class="animable"></path></g><polygon points="314.08 184.23 281.51 184.23 281.62 183.03 314.19 183.03 314.08 184.23" style="fill: rgb(255, 255, 255); transform-origin: 297.85px 183.63px;" id="elksme429ri" class="animable"></polygon><polygon points="319.19 186.15 284.69 186.15 284.79 184.95 319.3 184.95 319.19 186.15" style="fill: rgb(255, 193, 0); transform-origin: 301.995px 185.55px;" id="el2wl2q3vfzaf" class="animable"></polygon><polygon points="313.11 188.07 284.52 188.07 284.62 186.87 313.21 186.87 313.11 188.07" style="fill: rgb(255, 193, 0); transform-origin: 298.865px 187.47px;" id="elz5ms3xmko3" class="animable"></polygon><polygon points="309.95 189.99 284.35 189.99 284.45 188.79 310.06 188.79 309.95 189.99" style="fill: rgb(255, 193, 0); transform-origin: 297.205px 189.39px;" id="ela61psjb9774" class="animable"></polygon><polygon points="301.89 193.12 280.73 193.12 280.83 191.91 301.99 191.91 301.89 193.12" style="fill: rgb(255, 255, 255); transform-origin: 291.36px 192.515px;" id="elfguvjs2lv6v" class="animable"></polygon><polygon points="306.38 197.67 283.66 197.67 283.56 198.88 306.27 198.88 306.38 197.67" style="fill: rgb(255, 193, 0); transform-origin: 294.97px 198.275px;" id="el5m194dxm3g" class="animable"></polygon><polygon points="302.66 195.75 283.83 195.75 283.73 196.96 302.55 196.96 302.66 195.75" style="fill: rgb(255, 193, 0); transform-origin: 293.195px 196.355px;" id="el0inu4x08kg3l" class="animable"></polygon><polygon points="304.74 193.83 284 193.83 283.9 195.04 304.63 195.04 304.74 193.83" style="fill: rgb(255, 193, 0); transform-origin: 294.32px 194.435px;" id="elmjgvneq1l3c" class="animable"></polygon><polygon points="300.58 207.76 279.42 207.76 279.53 206.56 300.69 206.56 300.58 207.76" style="fill: rgb(255, 255, 255); transform-origin: 290.055px 207.16px;" id="el1wmkumd9ywx" class="animable"></polygon><polygon points="305.08 212.32 282.36 212.32 282.25 213.52 304.97 213.52 305.08 212.32" style="fill: rgb(255, 193, 0); transform-origin: 293.665px 212.92px;" id="el9iwzmxge5op" class="animable"></polygon><polygon points="301.36 210.4 282.53 210.4 282.43 211.6 301.25 211.6 301.36 210.4" style="fill: rgb(255, 193, 0); transform-origin: 291.895px 211px;" id="elhewclihx5i9" class="animable"></polygon><polygon points="303.44 208.48 282.7 208.48 282.6 209.68 303.33 209.68 303.44 208.48" style="fill: rgb(255, 193, 0); transform-origin: 293.02px 209.08px;" id="el5zvid5ytpfw" class="animable"></polygon><polygon points="292.04 175.28 274.86 175.28 274.96 174.07 292.15 174.07 292.04 175.28" style="fill: rgb(255, 255, 255); transform-origin: 283.505px 174.675px;" id="elcc4ce09wwki" class="animable"></polygon><polygon points="295.62 179.83 277.17 179.83 277.06 181.04 295.51 181.04 295.62 179.83" style="fill: rgb(255, 255, 255); transform-origin: 286.34px 180.435px;" id="elv9pcefs67c" class="animable"></polygon><polygon points="292.62 177.91 277.34 177.91 277.23 179.12 292.52 179.12 292.62 177.91" style="fill: rgb(255, 255, 255); transform-origin: 284.925px 178.515px;" id="elxp41py5r7bf" class="animable"></polygon><polygon points="294.34 175.99 277.51 175.99 277.4 177.2 294.24 177.2 294.34 175.99" style="fill: rgb(255, 255, 255); transform-origin: 285.87px 176.595px;" id="elyap2jizu2g" class="animable"></polygon><polygon points="305.87 203.43 283.15 203.43 283.04 204.64 305.76 204.64 305.87 203.43" style="fill: rgb(255, 193, 0); transform-origin: 294.455px 204.035px;" id="elo630637ot5s" class="animable"></polygon><polygon points="302.15 201.51 283.32 201.51 283.21 202.72 302.04 202.72 302.15 201.51" style="fill: rgb(255, 193, 0); transform-origin: 292.68px 202.115px;" id="eldrwaifek1i" class="animable"></polygon><polygon points="304.23 199.59 283.49 199.59 283.39 200.8 304.12 200.8 304.23 199.59" style="fill: rgb(255, 193, 0); transform-origin: 293.81px 200.195px;" id="el6wyupx0zh2h" class="animable"></polygon><path d="M345.72,163.42H308.21a2.34,2.34,0,0,1-2.36-2.59l2.82-31.71a2.79,2.79,0,0,1,2.73-2.5h37.5a2.34,2.34,0,0,1,2.36,2.59l-2.82,31.71A2.78,2.78,0,0,1,345.72,163.42Zm-34.32-35.8a1.79,1.79,0,0,0-1.74,1.59l-2.81,31.71a1.35,1.35,0,0,0,.34,1.07,1.37,1.37,0,0,0,1,.43h37.51a1.78,1.78,0,0,0,1.73-1.59l2.82-31.71a1.39,1.39,0,0,0-.35-1.06,1.36,1.36,0,0,0-1-.44Z" style="fill: rgb(255, 193, 0); transform-origin: 328.555px 145.02px;" id="el3wwmtq2ayra" class="animable"></path><path d="M350.2,136.07H308.6a.5.5,0,0,1-.5-.5.5.5,0,0,1,.5-.5h41.6a.5.5,0,0,1,.5.5A.51.51,0,0,1,350.2,136.07Z" style="fill: rgb(255, 193, 0); transform-origin: 329.4px 135.57px;" id="elouef3a845q" class="animable"></path><path d="M316,163.42h-.05a.49.49,0,0,1-.45-.54l2.43-27.36a.51.51,0,0,1,.54-.45.5.5,0,0,1,.46.54L316.49,163A.51.51,0,0,1,316,163.42Z" style="fill: rgb(255, 193, 0); transform-origin: 317.215px 149.244px;" id="ely8iqog52ylg" class="animable"></path><path d="M345.32,139.32H322.74a.5.5,0,0,1-.5-.5.5.5,0,0,1,.5-.5h22.58a.5.5,0,0,1,.5.5A.5.5,0,0,1,345.32,139.32Z" style="fill: rgb(255, 193, 0); transform-origin: 334.03px 138.82px;" id="elzena4pwo2h" class="animable"></path><path d="M341.78,143.31h-19.4a.51.51,0,0,1-.5-.5.5.5,0,0,1,.5-.5h19.4a.5.5,0,0,1,.5.5A.5.5,0,0,1,341.78,143.31Z" style="fill: rgb(255, 193, 0); transform-origin: 332.08px 142.81px;" id="elcjuc4vf4me8" class="animable"></path><path d="M333.31,147.42H322a.5.5,0,0,1-.5-.5.5.5,0,0,1,.5-.5h11.29a.51.51,0,0,1,.5.5A.5.5,0,0,1,333.31,147.42Z" style="fill: rgb(255, 193, 0); transform-origin: 327.645px 146.92px;" id="el113k5ov9c19" class="animable"></path><path d="M335.09,155.45H321.3a.5.5,0,0,1-.5-.5.51.51,0,0,1,.5-.5h13.79a.51.51,0,0,1,.5.5A.5.5,0,0,1,335.09,155.45Z" style="fill: rgb(255, 193, 0); transform-origin: 328.195px 154.95px;" id="el0lnk4fzc9bxp" class="animable"></path><path d="M332.23,159.57H320.94a.5.5,0,0,1,0-1h11.29a.5.5,0,0,1,0,1Z" style="fill: rgb(255, 193, 0); transform-origin: 326.585px 159.07px;" id="elarf2rh5ia09" class="animable"></path><path d="M338.84,159.57h-3.62a.5.5,0,0,1,0-1h3.62a.5.5,0,0,1,0,1Z" style="fill: rgb(255, 193, 0); transform-origin: 337.03px 159.07px;" id="elh60wfa2ely" class="animable"></path><path d="M342.81,151.41H321.66a.5.5,0,0,1,0-1h21.15a.5.5,0,0,1,0,1Z" style="fill: rgb(255, 193, 0); transform-origin: 332.235px 150.91px;" id="eli5ten9gfe7l" class="animable"></path><path d="M268.14,160.31a.51.51,0,0,1-.36-.15.5.5,0,0,1,0-.7l2.5-2.5-2.5-2.49a.5.5,0,0,1,.71-.71l2.85,2.85a.51.51,0,0,1,0,.71l-2.85,2.84A.49.49,0,0,1,268.14,160.31Z" style="fill: rgb(38, 50, 56); transform-origin: 269.559px 156.962px;" id="elzj98qcdbfk9" class="animable"></path><path d="M259.6,160.31a.49.49,0,0,1-.35-.15l-2.85-2.84a.51.51,0,0,1,0-.71l2.85-2.85a.5.5,0,1,1,.71.71l-2.5,2.49,2.5,2.5a.5.5,0,0,1,0,.7A.51.51,0,0,1,259.6,160.31Z" style="fill: rgb(38, 50, 56); transform-origin: 258.182px 156.961px;" id="elbx8to7156pc" class="animable"></path><path d="M262.8,160.31a.51.51,0,0,1-.17,0,.5.5,0,0,1-.29-.64l2.13-5.7a.5.5,0,0,1,.64-.29.5.5,0,0,1,.3.64l-2.14,5.7A.49.49,0,0,1,262.8,160.31Z" style="fill: rgb(38, 50, 56); transform-origin: 263.874px 156.983px;" id="elx1zvwkpnu9r" class="animable"></path><path d="M331.93,234.1a.47.47,0,0,1-.35-.15.5.5,0,0,1,0-.71l2.49-2.49-2.49-2.5a.49.49,0,1,1,.7-.7l2.85,2.84a.53.53,0,0,1,.15.36.51.51,0,0,1-.15.35L332.28,234A.47.47,0,0,1,331.93,234.1Z" style="fill: rgb(255, 193, 0); transform-origin: 333.356px 230.754px;" id="elefck47bccxs" class="animable"></path><path d="M323.39,234.1A.5.5,0,0,1,323,234l-2.85-2.85a.51.51,0,0,1,0-.71l2.85-2.84a.5.5,0,0,1,.71,0,.5.5,0,0,1,0,.7l-2.5,2.5,2.5,2.49a.51.51,0,0,1,0,.71A.51.51,0,0,1,323.39,234.1Z" style="fill: rgb(255, 193, 0); transform-origin: 321.93px 230.779px;" id="elec3wzq7rylj" class="animable"></path><path d="M326.6,234.1a.39.39,0,0,1-.18,0,.49.49,0,0,1-.29-.64l2.13-5.7a.5.5,0,0,1,.94.35l-2.14,5.7A.49.49,0,0,1,326.6,234.1Z" style="fill: rgb(255, 193, 0); transform-origin: 327.663px 230.773px;" id="el2l2p9ht7cmg" class="animable"></path><path d="M309.35,120.7a.51.51,0,0,1-.36-.15.5.5,0,0,1,0-.7l2.5-2.5-2.5-2.49a.5.5,0,0,1,.71-.71l2.85,2.85a.51.51,0,0,1,0,.71l-2.85,2.84A.49.49,0,0,1,309.35,120.7Z" style="fill: rgb(255, 193, 0); transform-origin: 310.768px 117.351px;" id="eljw5h0kf3z4e" class="animable"></path><path d="M300.81,120.7a.5.5,0,0,1-.35-.15l-2.85-2.84a.51.51,0,0,1,0-.71l2.85-2.85a.5.5,0,1,1,.71.71l-2.5,2.49,2.5,2.5a.5.5,0,0,1,0,.7A.51.51,0,0,1,300.81,120.7Z" style="fill: rgb(255, 193, 0); transform-origin: 299.392px 117.351px;" id="elpggbfsh7bdl" class="animable"></path><path d="M304,120.7l-.17,0a.5.5,0,0,1-.29-.64l2.13-5.7a.5.5,0,0,1,.64-.29.5.5,0,0,1,.3.64l-2.14,5.7A.49.49,0,0,1,304,120.7Z" style="fill: rgb(255, 193, 0); transform-origin: 305.074px 117.37px;" id="elgmhthxrhnta" class="animable"></path></g><defs>     <filter id="active" height="200%">         <feMorphology in="SourceAlpha" result="DILATED" operator="dilate" radius="2"></feMorphology>                <feFlood flood-color="#32DFEC" flood-opacity="1" result="PINK"></feFlood>        <feComposite in="PINK" in2="DILATED" operator="in" result="OUTLINE"></feComposite>        <feMerge>            <feMergeNode in="OUTLINE"></feMergeNode>            <feMergeNode in="SourceGraphic"></feMergeNode>        </feMerge>    </filter>    <filter id="hover" height="200%">        <feMorphology in="SourceAlpha" result="DILATED" operator="dilate" radius="2"></feMorphology>                <feFlood flood-color="#ff0000" flood-opacity="0.5" result="PINK"></feFlood>        <feComposite in="PINK" in2="DILATED" operator="in" result="OUTLINE"></feComposite>        <feMerge>            <feMergeNode in="OUTLINE"></feMergeNode>            <feMergeNode in="SourceGraphic"></feMergeNode>        </feMerge>            <feColorMatrix type="matrix" values="0   0   0   0   0                0   1   0   0   0                0   0   0   0   0                0   0   0   1   0 "></feColorMatrix>    </filter></defs></svg>