<?xml version="1.0" encoding="UTF-8"?>
<svg xmlns="http://www.w3.org/2000/svg" xmlns:xlink="http://www.w3.org/1999/xlink" viewBox="0 0 150 150" width="150px" height="150px">
<g id="surface1495696">
<path style=" stroke:none;fill-rule:nonzero;fill:rgb(100%,100%,100%);fill-opacity:1;" d="M 75 6 C 62.824219 6 54.5625 8.90625 49.3125 13.125 C 44.0625 17.34375 42 22.769531 42 27.28125 L 42 42 L 72 42 L 72 45 L 27.28125 45 C 21.796875 45 16.230469 47.378906 12.28125 52.40625 C 8.332031 57.433594 6 64.933594 6 75 C 6 85.066406 8.332031 92.566406 12.28125 97.59375 C 16.230469 102.621094 21.796875 105 27.28125 105 L 42 105 L 42 122.71875 C 42 127.230469 44.0625 132.65625 49.3125 136.875 C 54.5625 141.09375 62.824219 144 75 144 C 87.175781 144 95.4375 141.09375 100.6875 136.875 C 105.9375 132.65625 108 127.230469 108 122.71875 L 108 108 L 78 108 L 78 105 L 122.71875 105 C 128.203125 105 133.769531 102.621094 137.71875 97.59375 C 141.667969 92.566406 144 85.066406 144 75 C 144 64.933594 141.667969 57.433594 137.71875 52.40625 C 133.769531 47.378906 128.203125 45 122.71875 45 L 108 45 L 108 27.28125 C 108 22.652344 105.949219 17.214844 100.6875 13.03125 C 95.425781 8.847656 87.164062 6 75 6 Z M 75 12 C 86.238281 12 93.046875 14.625 96.9375 17.71875 C 100.828125 20.8125 102 24.410156 102 27.28125 L 102 63 C 102 67.96875 97.96875 72 93 72 L 57 72 C 50.824219 72 45.503906 75.808594 43.21875 81.1875 C 42.832031 82.078125 42.480469 83.027344 42.28125 84 C 42.082031 84.972656 42 85.96875 42 87 L 42 99 L 27.28125 99 C 23.472656 99 19.945312 97.511719 17.0625 93.84375 C 14.179688 90.175781 12 84.128906 12 75 C 12 65.871094 14.179688 59.824219 17.0625 56.15625 C 19.945312 52.488281 23.472656 51 27.28125 51 L 78 51 L 78 36 L 48 36 L 48 27.28125 C 48 24.597656 49.160156 20.941406 53.0625 17.8125 C 56.964844 14.683594 63.773438 12 75 12 Z M 60 21 C 56.695312 21 54 23.695312 54 27 C 54 30.304688 56.695312 33 60 33 C 63.304688 33 66 30.304688 66 27 C 66 23.695312 63.304688 21 60 21 Z M 108 51 L 122.71875 51 C 126.527344 51 130.054688 52.488281 132.9375 56.15625 C 135.820312 59.824219 138 65.871094 138 75 C 138 84.128906 135.820312 90.175781 132.9375 93.84375 C 130.054688 97.511719 126.527344 99 122.71875 99 L 72 99 L 72 114 L 102 114 L 102 122.71875 C 102 125.402344 100.839844 129.058594 96.9375 132.1875 C 93.035156 135.316406 86.226562 138 75 138 C 63.773438 138 56.964844 135.316406 53.0625 132.1875 C 49.160156 129.058594 48 125.402344 48 122.71875 L 48 87 C 48 86.378906 48.070312 85.804688 48.1875 85.21875 C 49.03125 81.117188 52.652344 78 57 78 L 93 78 C 101.238281 78 108 71.238281 108 63 Z M 90 117 C 86.695312 117 84 119.695312 84 123 C 84 126.304688 86.695312 129 90 129 C 93.304688 129 96 126.304688 96 123 C 96 119.695312 93.304688 117 90 117 Z M 90 117 "/>
</g>
</svg>
